{
  "accessors": [
    {
      "bufferView": 2,
      "componentType": 5126,
      "count": 65533,
      "max": [
        0.0702870786190033,
        0.09991159290075302,
        0.07017648965120316
      ],
      "min": [
        -0.07013550400733948,
        -1.8626467479521125e-08,
        -0.07024608552455902
      ],
      "type": "VEC3"
    },
    {
      "bufferView": 2,
      "byteOffset": 786396,
      "componentType": 5126,
      "count": 65533,
      "max": [
        0.9953364729881287,
        0.9990485310554504,
        0.9953367114067078
      ],
      "min": [
        -0.9953365325927734,
        -1.0,
        -0.9953364729881287
      ],
      "type": "VEC3"
    },
    {
      "bufferView": 1,
      "componentType": 5126,
      "count": 65533,
      "max": [
        1.0003011226654053,
        1.0000001192092896
      ],
      "min": [
        -0.00030095994588918984,
        0.0
      ],
      "type": "VEC2"
    },
    {
      "bufferView": 0,
      "componentType": 5125,
      "count": 98349,
      "type": "SCALAR"
    },
    {
      "bufferView": 2,
      "byteOffset": 1572792,
      "componentType": 5126,
      "count": 65532,
      "max": [
        0.07050283998250961,
        0.09933938086032867,
        0.07039224356412888
      ],
      "min": [
        -0.0703512653708458,
        -1.8626467479521125e-08,
        -0.07046185433864594
      ],
      "type": "VEC3"
    },
    {
      "bufferView": 2,
      "byteOffset": 2359176,
      "componentType": 5126,
      "count": 65532,
      "max": [
        0.9999008774757385,
        0.6307126879692078,
        0.9999009966850281
      ],
      "min": [
        -0.9999006986618042,
        -1.0,
        -0.9999008774757385
      ],
      "type": "VEC3"
    },
    {
      "bufferView": 1,
      "byteOffset": 524264,
      "componentType": 5126,
      "count": 65532,
      "max": [
        1.0002126693725586,
        0.9929846525192261
      ],
      "min": [
        -0.00021247504628263414,
        0.0
      ],
      "type": "VEC2"
    },
    {
      "bufferView": 0,
      "byteOffset": 393396,
      "componentType": 5125,
      "count": 98394,
      "type": "SCALAR"
    },
    {
      "bufferView": 2,
      "byteOffset": 3145560,
      "componentType": 5126,
      "count": 65534,
      "max": [
        0.06659131497144699,
        0.09943655133247375,
        0.06648073345422745
      ],
      "min": [
        -0.06643974035978317,
        -1.862645326866641e-08,
        -0.07024608552455902
      ],
      "type": "VEC3"
    },
    {
      "bufferView": 2,
      "byteOffset": 3931968,
      "componentType": 5126,
      "count": 65534,
      "max": [
        0.9992730021476746,
        0.9999597668647766,
        0.999272346496582
      ],
      "min": [
        -0.9992730617523193,
        -1.0,
        -0.9992727637290955
      ],
      "type": "VEC3"
    },
    {
      "bufferView": 1,
      "byteOffset": 1048520,
      "componentType": 5126,
      "count": 65534,
      "max": [
        1.0002938508987427,
        1.0000001192092896
      ],
      "min": [
        -0.00021247504628263414,
        0.0
      ],
      "type": "VEC2"
    },
    {
      "bufferView": 0,
      "byteOffset": 786972,
      "componentType": 5125,
      "count": 98352,
      "type": "SCALAR"
    },
    {
      "bufferView": 2,
      "byteOffset": 4718376,
      "componentType": 5126,
      "count": 65534,
      "max": [
        0.06666862964630127,
        0.09315034747123718,
        0.06655804067850113
      ],
      "min": [
        -0.06651704758405685,
        0.008985741063952446,
        -0.066627636551857
      ],
      "type": "VEC3"
    },
    {
      "bufferView": 2,
      "byteOffset": 5504784,
      "componentType": 5126,
      "count": 65534,
      "max": [
        0.9999243021011353,
        0.9999966025352478,
        0.9999243021011353
      ],
      "min": [
        -0.9999243021011353,
        0.00029366122907958925,
        -0.99992436170578
      ],
      "type": "VEC3"
    },
    {
      "bufferView": 1,
      "byteOffset": 1572792,
      "componentType": 5126,
      "count": 65534,
      "max": [
        1.0000009536743164,
        0.9294831156730652
      ],
      "min": [
        -0.00030409396276809275,
        0.0
      ],
      "type": "VEC2"
    },
    {
      "bufferView": 0,
      "byteOffset": 1180380,
      "componentType": 5125,
      "count": 98298,
      "type": "SCALAR"
    },
    {
      "bufferView": 2,
      "byteOffset": 6291192,
      "componentType": 5126,
      "count": 12171,
      "max": [
        0.06993428617715836,
        0.09991159290075302,
        0.06655804067850113
      ],
      "min": [
        -0.06651704758405685,
        0.07829724252223969,
        -0.06989330798387527
      ],
      "type": "VEC3"
    },
    {
      "bufferView": 2,
      "byteOffset": 6437244,
      "componentType": 5126,
      "count": 12171,
      "max": [
        0.9983645677566528,
        0.9990484714508057,
        0.99992436170578
      ],
      "min": [
        -0.9983645081520081,
        -0.4637533128261566,
        -0.9983643293380737
      ],
      "type": "VEC3"
    },
    {
      "bufferView": 1,
      "byteOffset": 2097064,
      "componentType": 5126,
      "count": 12171,
      "max": [
        1.0003042221069336,
        1.0000001192092896
      ],
      "min": [
        -0.00029494581394828856,
        0.7810468673706055
      ],
      "type": "VEC2"
    },
    {
      "bufferView": 0,
      "byteOffset": 1573572,
      "componentType": 5125,
      "count": 18255,
      "type": "SCALAR"
    },
    {
      "bufferView": 2,
      "byteOffset": 6583296,
      "componentType": 5126,
      "count": 65532,
      "max": [
        0.034769415855407715,
        0.05888526886701584,
        0.026572903618216515
      ],
      "min": [
        -0.014964119531214237,
        0.04537760466337204,
        -0.026581356301903725
      ],
      "type": "VEC3"
    },
    {
      "bufferView": 2,
      "byteOffset": 7369680,
      "componentType": 5126,
      "count": 65532,
      "max": [
        0.9621915221214294,
        -0.09791529923677444,
        0.97308349609375
      ],
      "min": [
        -0.6098079681396484,
        -0.9999943971633911,
        -0.7038251757621765
      ],
      "type": "VEC3"
    },
    {
      "bufferView": 1,
      "byteOffset": 2194432,
      "componentType": 5126,
      "count": 65532,
      "max": [
        1.0069921016693115,
        0.8084096312522888
      ],
      "min": [
        -0.007065499201416969,
        0.8084082007408142
      ],
      "type": "VEC2"
    },
    {
      "bufferView": 0,
      "byteOffset": 1646592,
      "componentType": 5125,
      "count": 98298,
      "type": "SCALAR"
    },
    {
      "bufferView": 2,
      "byteOffset": 8156064,
      "componentType": 5126,
      "count": 65532,
      "max": [
        0.06370986998081207,
        0.07989183068275452,
        0.06377548724412918
      ],
      "min": [
        -0.06309036910533905,
        0.009063472039997578,
        -0.06305871903896332
      ],
      "type": "VEC3"
    },
    {
      "bufferView": 2,
      "byteOffset": 8942448,
      "componentType": 5126,
      "count": 65532,
      "max": [
        0.9999637007713318,
        0.9996525645256042,
        0.9999546408653259
      ],
      "min": [
        -0.9478287696838379,
        -0.9999982714653015,
        -0.9088166356086731
      ],
      "type": "VEC3"
    },
    {
      "bufferView": 1,
      "byteOffset": 2718688,
      "componentType": 5126,
      "count": 65532,
      "max": [
        1.006801962852478,
        0.8084094524383545
      ],
      "min": [
        -0.007065499201416969,
        0.0
      ],
      "type": "VEC2"
    },
    {
      "bufferView": 0,
      "byteOffset": 2039784,
      "componentType": 5125,
      "count": 98298,
      "type": "SCALAR"
    },
    {
      "bufferView": 2,
      "byteOffset": 9728832,
      "componentType": 5126,
      "count": 65532,
      "max": [
        0.056301798671483994,
        0.013393648900091648,
        0.05576762929558754
      ],
      "min": [
        -0.05583340302109718,
        0.008985738269984722,
        -0.056367598474025726
      ],
      "type": "VEC3"
    },
    {
      "bufferView": 2,
      "byteOffset": 10515216,
      "componentType": 5126,
      "count": 65532,
      "max": [
        0.5015120506286621,
        0.9999966025352478,
        0.5450382828712463
      ],
      "min": [
        -0.5338683128356934,
        0.8353793025016785,
        -0.4909224510192871
      ],
      "type": "VEC3"
    },
    {
      "bufferView": 1,
      "byteOffset": 3242944,
      "componentType": 5126,
      "count": 65532,
      "max": [
        1.0000001192092896,
        0.0
      ],
      "min": [
        0.0,
        0.0
      ],
      "type": "VEC2"
    },
    {
      "bufferView": 0,
      "byteOffset": 2432976,
      "componentType": 5125,
      "count": 98298,
      "type": "SCALAR"
    },
    {
      "bufferView": 2,
      "byteOffset": 11301600,
      "componentType": 5126,
      "count": 45068,
      "max": [
        0.06493446230888367,
        0.07832062989473343,
        0.06484086811542511
      ],
      "min": [
        -0.06394532322883606,
        0.012103559449315071,
        -0.06305871903896332
      ],
      "type": "VEC3"
    },
    {
      "bufferView": 2,
      "byteOffset": 11842416,
      "componentType": 5126,
      "count": 45068,
      "max": [
        0.9999715685844421,
        0.9945716857910156,
        0.9998841881752014
      ],
      "min": [
        -0.9997607469558716,
        -0.9998458027839661,
        -0.9998610019683838
      ],
      "type": "VEC3"
    },
    {
      "bufferView": 1,
      "byteOffset": 3767200,
      "componentType": 5126,
      "count": 45068,
      "max": [
        1.002026915550232,
        0.8084093332290649
      ],
      "min": [
        -0.002026726957410574,
        0.0
      ],
      "type": "VEC2"
    },
    {
      "bufferView": 0,
      "byteOffset": 2826168,
      "componentType": 5125,
      "count": 67602,
      "type": "SCALAR"
    },
    {
      "bufferView": 2,
      "byteOffset": 12383232,
      "componentType": 5126,
      "count": 144,
      "max": [
        -0.00017889193259179592,
        0.01783287711441517,
        0.0009143073111772537
      ],
      "min": [
        -0.003980272449553013,
        -0.0010736547410488129,
        -0.0014068195596337318
      ],
      "type": "VEC3"
    },
    {
      "bufferView": 2,
      "byteOffset": 12384960,
      "componentType": 5126,
      "count": 144,
      "max": [
        0.995288074016571,
        0.9693184494972229,
        0.9923914670944214
      ],
      "min": [
        -0.9979954361915588,
        -0.9849026203155518,
        -0.992760956287384
      ],
      "type": "VEC3"
    },
    {
      "bufferView": 1,
      "byteOffset": 4127744,
      "componentType": 5126,
      "count": 144,
      "max": [
        1.0,
        1.0
      ],
      "min": [
        0.0,
        0.01000000536441803
      ],
      "type": "VEC2"
    },
    {
      "bufferView": 0,
      "byteOffset": 3096576,
      "componentType": 5125,
      "count": 228,
      "type": "SCALAR"
    },
    {
      "bufferView": 2,
      "byteOffset": 12386688,
      "componentType": 5126,
      "count": 16,
      "max": [
        0.5,
        0.5,
        0.5
      ],
      "min": [
        -0.5,
        -0.5,
        -0.5001499652862549
      ],
      "type": "VEC3"
    },
    {
      "bufferView": 2,
      "byteOffset": 12386880,
      "componentType": 5126,
      "count": 16,
      "max": [
        1.0,
        1.0,
        4.371139183945161e-08
      ],
      "min": [
        -6.984919309616089e-10,
        -0.70710688829422,
        -7.4505820180093e-08
      ],
      "type": "VEC3"
    },
    {
      "bufferView": 1,
      "byteOffset": 4128896,
      "componentType": 5126,
      "count": 16,
      "max": [
        1.0,
        1.0
      ],
      "min": [
        0.0,
        0.0
      ],
      "type": "VEC2"
    },
    {
      "bufferView": 0,
      "byteOffset": 3097488,
      "componentType": 5125,
      "count": 24,
      "type": "SCALAR"
    }
  ],
  "asset": {
    "extras": {
      "author": "lucatorcigliani (https://sketchfab.com/lucatorcigliani)",
      "license": "CC-BY-4.0 (http://creativecommons.org/licenses/by/4.0/)",
      "source": "https://sketchfab.com/3d-models/candle-in-a-glass-ec6cf358c4dd4cbda7be67f7846cbc9e",
      "title": "Candle in a glass"
    },
    "generator": "Sketchfab-12.65.0",
    "version": "2.0"
  },
  "bufferViews": [
    {
      "buffer": 0,
      "byteLength": 3097584,
      "name": "floatBufferViews",
      "target": 34963
    },
    {
      "buffer": 0,
      "byteLength": 4129024,
      "byteOffset": 3097584,
      "byteStride": 8,
      "name": "floatBufferViews",
      "target": 34962
    },
    {
      "buffer": 0,
      "byteLength": 12387072,
      "byteOffset": 7226608,
      "byteStride": 12,
      "name": "floatBufferViews",
      "target": 34962
    }
  ],
  "buffers": [
    {
      "byteLength": 19613680,
      "uri": "scene.bin"
    }
  ],
  "extensionsRequired": [
    "KHR_materials_pbrSpecularGlossiness"
  ],
  "extensionsUsed": [
    "KHR_materials_pbrSpecularGlossiness"
  ],
  "images": [
    {
      "uri": "textures/Candle_flame_diffuse.png"
    },
    {
      "uri": "textures/Candle_flame_emissive.png"
    }
  ],
  "materials": [
    {
      "alphaMode": "BLEND",
      "doubleSided": true,
      "extensions": {
        "KHR_materials_pbrSpecularGlossiness": {
          "diffuseFactor": [
            1.0,
            1.0,
            1.0,
            0.2570945165330966
          ],
          "glossinessFactor": 1.0,
          "specularFactor": [
            1.0,
            1.0,
            1.0
          ]
        }
      },
      "name": "Material.001"
    },
    {
      "doubleSided": true,
      "extensions": {
        "KHR_materials_pbrSpecularGlossiness": {
          "diffuseFactor": [
            0.8991235826972462,
            0.8762860553467767,
            0.6974758477735903,
            1.0
          ],
          "glossinessFactor": 0.8584365005046881,
          "specularFactor": [
            0.0,
            0.0,
            0.0
          ]
        }
      },
      "name": "Material.003"
    },
    {
      "doubleSided": true,
      "extensions": {
        "KHR_materials_pbrSpecularGlossiness": {
          "diffuseFactor": [
            0.0,
            0.0,
            0.0,
            1.0
          ],
          "glossinessFactor": 0.5,
          "specularFactor": [
            0.0,
            0.0,
            0.0
          ]
        }
      },
      "name": "Material.005"
    },
    {
      "alphaMode": "BLEND",
      "doubleSided": true,
      "emissiveFactor": [
        1.0,
        1.0,
        1.0
      ],
      "emissiveTexture": {
        "index": 1
      },
      "extensions": {
        "KHR_materials_pbrSpecularGlossiness": {
          "diffuseFactor": [
            1.0,
            1.0,
            1.0,
            0.09899944058665434
          ],
          "diffuseTexture": {
            "index": 0
          },
          "glossinessFactor": 0.5,
          "specularFactor": [
            0.0,
            0.0,
            0.0
          ]
        }
      },
      "name": "Candle_flame"
    }
  ],
  "meshes": [
    {
      "name": "Object_0",
      "primitives": [
        {
          "attributes": {
            "NORMAL": 1,
            "POSITION": 0,
            "TEXCOORD_0": 2
          },
          "indices": 3,
          "material": 0,
          "mode": 4
        }
      ]
    },
    {
      "name": "Object_1",
      "primitives": [
        {
          "attributes": {
            "NORMAL": 5,
            "POSITION": 4,
            "TEXCOORD_0": 6
          },
          "indices": 7,
          "material": 0,
          "mode": 4
        }
      ]
    },
    {
      "name": "Object_2",
      "primitives": [
        {
          "attributes": {
            "NORMAL": 9,
            "POSITION": 8,
            "TEXCOORD_0": 10
          },
          "indices": 11,
          "material": 0,
          "mode": 4
        }
      ]
    },
    {
      "name": "Object_3",
      "primitives": [
        {
          "attributes": {
            "NORMAL": 13,
            "POSITION": 12,
            "TEXCOORD_0": 14
          },
          "indices": 15,
          "material": 0,
          "mode": 4
        }
      ]
    },
    {
      "name": "Object_4",
      "primitives": [
        {
          "attributes": {
            "NORMAL": 17,
            "POSITION": 16,
            "TEXCOORD_0": 18
          },
          "indices": 19,
          "material": 0,
          "mode": 4
        }
      ]
    },
    {
      "name": "Object_5",
      "primitives": [
        {
          "attributes": {
            "NORMAL": 21,
            "POSITION": 20,
            "TEXCOORD_0": 22
          },
          "indices": 23,
          "material": 1,
          "mode": 4
        }
      ]
    },
    {
      "name": "Object_6",
      "primitives": [
        {
          "attributes": {
            "NORMAL": 25,
            "POSITION": 24,
            "TEXCOORD_0": 26
          },
          "indices": 27,
          "material": 1,
          "mode": 4
        }
      ]
    },
    {
      "name": "Object_7",
      "primitives": [
        {
          "attributes": {
            "NORMAL": 29,
            "POSITION": 28,
            "TEXCOORD_0": 30
          },
          "indices": 31,
          "material": 1,
          "mode": 4
        }
      ]
    },
    {
      "name": "Object_8",
      "primitives": [
        {
          "attributes": {
            "NORMAL": 33,
            "POSITION": 32,
            "TEXCOORD_0": 34
          },
          "indices": 35,
          "material": 1,
          "mode": 4
        }
      ]
    },
    {
      "name": "Object_9",
      "primitives": [
        {
          "attributes": {
            "NORMAL": 37,
            "POSITION": 36,
            "TEXCOORD_0": 38
          },
          "indices": 39,
          "material": 2,
          "mode": 4
        }
      ]
    },
    {
      "name": "Object_10",
      "primitives": [
        {
          "attributes": {
            "NORMAL": 41,
            "POSITION": 40,
            "TEXCOORD_0": 42
          },
          "indices": 43,
          "material": 3,
          "mode": 4
        }
      ]
    }
  ],
  "nodes": [
    {
      "children": [
        1
      ],
      "matrix": [
        1.0,
        0.0,
        0.0,
        0.0,
        0.0,
        2.220446049250313e-16,
        -1.0,
        0.0,
        0.0,
        1.0,
        2.220446049250313e-16,
        0.0,
        0.0,
        0.0,
        0.0,
        1.0
      ],
      "name": "Sketchfab_model"
    },
    {
      "children": [
        2
      ],
      "name": "root"
    },
    {
      "children": [
        3,
        9,
        14,
        16
      ],
      "matrix": [
        1.0,
        0.0,
        0.0,
        0.0,
        0.0,
        2.220446049250313e-16,
        1.0,
        0.0,
        0.0,
        -1.0,
        2.220446049250313e-16,
        0.0,
        0.0,
        0.0,
        0.0,
        1.0
      ],
      "name": "GLTF_SceneRootNode"
    },
    {
      "children": [
        4,
        5,
        6,
        7,
        8
      ],
      "matrix": [
        1.0,
        0.0,
        0.0,
        0.0,
        0.0,
        1.7235130071640015,
        0.0,
        0.0,
        0.0,
        0.0,
        1.0,
        0.0,
        -7.578590884804726e-05,
        0.0,
        3.479793667793274e-05,
        1.0
      ],
      "name": "Glass_2"
    },
    {
      "mesh": 0,
      "name": "Object_4"
    },
    {
      "mesh": 1,
      "name": "Object_5"
    },
    {
      "mesh": 2,
      "name": "Object_6"
    },
    {
      "mesh": 3,
      "name": "Object_7"
    },
    {
      "mesh": 4,
      "name": "Object_8"
    },
    {
      "children": [
        10,
        11,
        12,
        13
      ],
      "matrix": [
        0.9596124291419983,
        0.0,
        0.0,
        0.0,
        0.0,
        1.6539045572280884,
        0.0,
        0.0,
        0.0,
        0.0,
        0.9596124291419983,
        0.0,
        -7.578590884804726e-05,
        0.0,
        3.479793667793274e-05,
        1.0
      ],
      "name": "Candle_3"
    },
    {
      "mesh": 5,
      "name": "Object_10"
    },
    {
      "mesh": 6,
      "name": "Object_11"
    },
    {
      "mesh": 7,
      "name": "Object_12"
    },
    {
      "mesh": 8,
      "name": "Object_13"
    },
    {
      "children": [
        15
      ],
      "matrix": [
        1.0,
        0.0,
        0.0,
        0.0,
        0.0,
        1.0,
        0.0,
        0.0,
        0.0,
        0.0,
        1.0,
        0.0,
        -0.00042985472828149796,
        0.07796920090913773,
        0.005353941582143307,
        1.0
      ],
      "name": "Cylinder_4"
    },
    {
      "mesh": 9,
      "name": "Object_15"
    },
    {
      "children": [
        17
      ],
      "matrix": [
        -1.6015954118486775e-09,
        -1.6015954595799403e-09,
        0.053740624338388394,
        0.0,
        -0.053740624338388394,
        -1.6015954118486775e-09,
        -1.6015954595799403e-09,
        0.0,
        2.165844901357244e-09,
        -0.07267369329929345,
        -2.165844836810038e-09,
        0.0,
        -0.000123901991173625,
        0.10619106143712997,
        0.0063382526859641075,
        1.0
      ],
      "name": "Candle flame_5"
    },
    {
      "mesh": 10,
      "name": "Object_17"
    }
  ],
  "samplers": [
    {
      "magFilter": 9729,
      "minFilter": 9987,
      "wrapS": 10497,
      "wrapT": 10497
    },
    {
      "magFilter": 9729,
      "minFilter": 9987,
      "wrapS": 33648,
      "wrapT": 33648
    }
  ],
  "scene": 0,
  "scenes": [
    {
      "name": "Sketchfab_Scene",
      "nodes": [
        0
      ]
    }
  ],
  "textures": [
    {
      "sampler": 0,
      "source": 0
    },
    {
      "sampler": 1,
      "source": 1
    }
  ]
}
