# Blender v3.2.2 OBJ File: ''
# www.blender.org
mtllib untitled.mtl
o Cube.001_Cube.002
v -0.312869 1.319823 -0.560162
v -0.312869 1.319823 -0.585474
v -0.339745 1.319730 -0.585474
v -0.339745 1.319730 -0.560162
v -0.309085 0.229412 0.469913
v -0.309085 0.229412 0.497458
v -0.335960 0.229319 0.497458
v -0.335960 0.229319 0.469913
v -0.258172 1.320013 -0.560162
v -0.258172 1.320013 -0.585474
v -0.284690 1.319921 -0.585474
v -0.284690 1.319921 -0.560162
v 0.323820 1.322033 -0.560162
v 0.323820 1.322033 -0.585474
v -0.254388 0.229602 0.497458
v -0.280906 0.229510 0.497458
v -0.280601 0.141680 0.497458
v -0.254083 0.141772 0.497458
v 0.327604 0.231623 -0.585474
v 0.327604 0.231623 -0.560162
v 0.327909 0.143793 -0.560162
v 0.327909 0.143793 -0.585474
v -0.280906 0.229511 -0.560162
v -0.309085 0.229413 -0.560162
v -0.308780 0.141583 -0.560162
v -0.280601 0.141681 -0.560162
v -0.309085 0.229413 -0.585475
v -0.335960 0.229320 -0.560162
v -0.335960 0.229320 -0.585475
v 0.329344 1.322052 -0.560162
v 0.329344 1.322052 -0.585474
v 0.323819 1.322031 0.469914
v 0.323819 1.322031 0.497460
v 0.329343 1.322051 0.497460
v 0.329343 1.322051 0.469914
v -0.312870 1.319822 0.497459
v -0.312870 1.319822 0.469914
v -0.339745 1.319728 0.469914
v -0.339745 1.319728 0.497459
v -0.258172 1.320012 0.497459
v -0.258172 1.320012 0.469914
v -0.284691 1.319920 0.469914
v -0.284691 1.319920 0.497459
v -0.308780 0.141583 -0.585475
v -0.382134 0.637371 0.334377
v -0.382072 0.619623 0.334377
v -0.382072 0.619623 0.336342
v -0.382134 0.637371 0.336342
v -0.254388 0.229602 0.469913
v 0.327604 0.231622 0.469913
v 0.327909 0.143792 0.469913
v -0.254083 0.141772 0.469913
v 0.327604 0.231622 0.497458
v 0.327909 0.143792 0.497458
v -0.280601 0.141680 0.469913
v -0.254082 0.141773 -0.560162
v -0.254082 0.141773 -0.585475
v -0.280601 0.141681 -0.585475
v -0.308780 0.141582 0.497458
v -0.308780 0.141582 0.469913
v -0.254387 0.229603 -0.560162
v -0.280906 0.229511 -0.585475
v -0.254387 0.229603 -0.585475
v -0.280906 0.229510 0.469913
v -0.284602 1.294400 -0.585474
v -0.312781 1.294302 -0.585474
v -0.339656 1.294208 0.497458
v -0.312781 1.294301 0.497458
v 0.333128 0.231641 0.469913
v 0.333128 0.231641 0.497458
v -0.339656 1.294209 -0.585474
v -0.339656 1.294209 -0.560162
v -0.284602 1.294399 0.497458
v -0.258084 1.294491 0.497458
v 0.323908 1.296512 -0.585474
v -0.258083 1.294492 -0.585474
v -0.339656 1.294208 0.469913
v 0.323908 1.296511 0.497459
v 0.329432 1.296530 0.497459
v 0.329432 1.296530 0.469913
v 0.329432 1.296531 -0.560162
v 0.329432 1.296531 -0.585474
v 0.333128 0.231642 -0.585474
v 0.333128 0.231642 -0.560162
v -0.257160 1.028268 0.497458
v -0.256729 0.904031 0.497458
v 0.325263 0.906051 0.497459
v 0.324832 1.030288 0.497459
v -0.256667 0.886283 0.497458
v 0.325325 0.888303 0.497459
v -0.256236 0.762046 0.497458
v 0.325756 0.764066 0.497459
v 0.325756 0.764067 -0.585474
v 0.325325 0.888304 -0.585474
v 0.330849 0.888324 -0.585474
v 0.331280 0.764087 -0.585474
v 0.325264 0.906053 -0.585474
v 0.330787 0.906072 -0.585474
v 0.324832 1.030290 -0.585474
v 0.330356 1.030309 -0.585474
v -0.311857 1.028080 -0.585474
v -0.311425 0.903843 -0.585475
v -0.338301 0.903749 -0.585475
v -0.338732 1.027987 -0.585474
v -0.311364 0.886095 -0.585475
v -0.338239 0.886001 -0.585475
v -0.310933 0.761858 -0.585475
v -0.337808 0.761764 -0.585475
v -0.338732 1.027985 0.469913
v -0.338301 0.903748 0.469913
v -0.338301 0.903748 0.497458
v -0.338732 1.027985 0.497458
v -0.338240 0.886000 0.469913
v -0.338240 0.886000 0.497458
v -0.337808 0.761763 0.469913
v -0.337808 0.761763 0.497458
v -0.257159 1.028270 -0.585474
v -0.256728 0.904033 -0.585474
v -0.283246 0.903941 -0.585474
v -0.283678 1.028178 -0.585474
v -0.256666 0.886284 -0.585474
v -0.283185 0.886192 -0.585474
v -0.256235 0.762047 -0.585474
v -0.282754 0.761955 -0.585474
v -0.311857 1.028079 0.497458
v -0.311426 0.903842 0.497458
v -0.283247 0.903939 0.497458
v -0.283678 1.028176 0.497458
v -0.311364 0.886093 0.497458
v -0.283185 0.886191 0.497458
v -0.310933 0.761856 0.497458
v -0.282754 0.761954 0.497458
v -0.338301 0.903749 -0.560162
v -0.338732 1.027987 -0.560162
v -0.338239 0.886001 -0.560162
v -0.337808 0.761764 -0.560162
v 0.330787 0.906071 0.497459
v 0.330356 1.030308 0.497459
v 0.330848 0.888322 0.497459
v 0.331280 0.764085 0.497459
v 0.330356 1.030309 -0.560162
v 0.330787 0.906072 -0.560162
v 0.330849 0.888324 -0.560162
v 0.331280 0.764087 -0.560162
v 0.330787 0.906071 0.469913
v 0.330356 1.030308 0.469913
v 0.330848 0.888322 0.469913
v 0.331280 0.764085 0.469913
v -0.255804 0.637809 0.497458
v 0.326187 0.639829 0.497459
v -0.255743 0.620061 0.497458
v 0.326248 0.622081 0.497459
v -0.255312 0.495824 0.497458
v 0.326680 0.497844 0.497458
v 0.326680 0.497845 -0.585474
v 0.326249 0.622082 -0.585474
v 0.331773 0.622101 -0.585474
v 0.332204 0.497864 -0.585474
v 0.326187 0.639830 -0.585474
v 0.331712 0.639850 -0.585474
v -0.310502 0.637621 -0.585475
v -0.337377 0.637527 -0.585475
v -0.310440 0.619872 -0.585475
v -0.337315 0.619779 -0.585475
v -0.310009 0.495635 -0.585475
v -0.336884 0.495542 -0.585475
v -0.337377 0.637526 0.469913
v -0.337377 0.637526 0.497458
v -0.337316 0.619778 0.469913
v -0.337316 0.619778 0.497458
v -0.336884 0.495541 0.469913
v -0.336884 0.495541 0.497458
v -0.255804 0.637810 -0.585474
v -0.282322 0.637718 -0.585474
v -0.255743 0.620062 -0.585474
v -0.282261 0.619970 -0.585474
v -0.255311 0.495825 -0.585475
v -0.281830 0.495733 -0.585475
v -0.310502 0.637619 0.497458
v -0.282323 0.637717 0.497458
v -0.310440 0.619871 0.497458
v -0.282261 0.619969 0.497458
v -0.310009 0.495634 0.497458
v -0.281830 0.495732 0.497458
v -0.337377 0.637527 -0.560162
v -0.337315 0.619779 -0.560162
v -0.336884 0.495542 -0.560162
v 0.331711 0.639848 0.497459
v 0.331773 0.622100 0.497459
v 0.332204 0.497863 0.497458
v 0.331712 0.639850 -0.560162
v 0.331773 0.622101 -0.560162
v 0.332204 0.497864 -0.560162
v 0.331711 0.639848 0.469913
v 0.331773 0.622100 0.469913
v 0.332204 0.497863 0.469913
v 0.327173 0.356021 -0.585474
v 0.332696 0.356041 -0.585474
v 0.327111 0.373770 -0.585474
v 0.332635 0.373789 -0.585474
v 0.332634 0.373788 0.497458
v 0.332634 0.373788 0.469913
v 0.332696 0.356039 0.497458
v 0.332696 0.356039 0.469913
v 0.332635 0.373789 -0.560162
v 0.332696 0.356041 -0.560162
v 0.327110 0.373768 0.497458
v 0.327172 0.356020 0.497458
v -0.281399 0.371658 -0.585475
v -0.309578 0.371560 -0.585475
v -0.281337 0.353909 -0.585475
v -0.309516 0.353812 -0.585475
v -0.336454 0.371465 0.497458
v -0.309579 0.371559 0.497458
v -0.336392 0.353717 0.497458
v -0.309517 0.353810 0.497458
v -0.336453 0.371466 -0.585475
v -0.336453 0.371466 -0.560162
v -0.336392 0.353718 -0.585475
v -0.336392 0.353718 -0.560162
v -0.281399 0.371656 0.497458
v -0.254881 0.371748 0.497458
v -0.281338 0.353908 0.497458
v -0.254820 0.354000 0.497458
v -0.254881 0.371750 -0.585475
v -0.254819 0.354001 -0.585475
v -0.336454 0.371465 0.469913
v -0.336392 0.353717 0.469913
v -0.257652 1.170254 0.497458
v 0.324339 1.172274 0.497459
v -0.257591 1.152505 0.497458
v 0.324401 1.154525 0.497459
v -0.312350 1.170065 -0.585474
v -0.339225 1.169972 -0.585474
v -0.312288 1.152317 -0.585474
v -0.339163 1.152224 -0.585474
v -0.339225 1.169970 0.469913
v -0.339225 1.169970 0.497458
v -0.339163 1.152222 0.469913
v -0.339163 1.152222 0.497458
v -0.257652 1.170255 -0.585474
v -0.284170 1.170163 -0.585474
v -0.257590 1.152507 -0.585474
v -0.284109 1.152415 -0.585474
v -0.312350 1.170064 0.497458
v -0.284171 1.170162 0.497458
v -0.312288 1.152316 0.497458
v -0.284109 1.152413 0.497458
v 0.324340 1.172275 -0.585474
v 0.324401 1.154527 -0.585474
v -0.339225 1.169972 -0.560162
v -0.339163 1.152224 -0.560162
v 0.329863 1.172293 0.497459
v 0.329925 1.154545 0.497459
v 0.329863 1.172294 -0.560162
v 0.329864 1.172294 -0.585474
v 0.329925 1.154546 -0.560162
v 0.329925 1.154546 -0.585474
v 0.329863 1.172293 0.469913
v 0.329925 1.154545 0.469913
v 0.329863 1.172293 0.286939
v 0.329925 1.154545 0.286939
v 0.329925 1.154546 -0.045124
v 0.329863 1.172293 -0.045124
v 0.329863 1.172294 -0.379554
v 0.329925 1.154546 -0.379554
v 0.329432 1.296530 0.286939
v 0.329432 1.296530 -0.045124
v 0.329432 1.296531 -0.379554
v -0.338732 1.027985 0.286939
v -0.339163 1.152222 0.347930
v -0.339163 1.152222 0.334377
v -0.339163 1.152222 0.286939
v -0.339163 1.152223 -0.379554
v -0.338732 1.027986 -0.379554
v -0.338732 1.027986 -0.045124
v -0.339163 1.152223 -0.045124
v -0.339163 1.152223 -0.316197
v -0.339163 1.152223 -0.329750
v -0.339163 1.152223 -0.424626
v -0.339163 1.152223 -0.438179
v -0.339225 1.169972 -0.424626
v -0.339225 1.169972 -0.379554
v -0.339656 1.294209 -0.379554
v -0.339225 1.169972 -0.438179
v -0.339225 1.169972 -0.329750
v -0.339225 1.169972 -0.316197
v -0.339225 1.169971 -0.045124
v -0.339656 1.294209 -0.045124
v -0.339225 1.169971 0.286939
v -0.339225 1.169971 0.334377
v -0.339225 1.169971 0.347930
v -0.339656 1.294208 0.286939
v -0.372731 1.152106 0.347930
v -0.372731 1.152106 0.345965
v -0.365630 1.152131 0.334377
v -0.372792 1.169855 -0.316197
v -0.372792 1.169855 -0.318162
v -0.379893 1.169830 -0.329750
v -0.383981 1.169816 -0.329750
v -0.383981 1.169816 -0.327785
v -0.383030 1.169820 -0.321991
v -0.380431 1.169829 -0.317749
v -0.376881 1.169841 -0.316197
v -0.339163 1.152222 0.225948
v -0.339225 1.169971 0.225948
v -0.336453 0.371466 -0.424626
v -0.336453 0.371466 -0.379554
v -0.336884 0.495542 -0.379554
v -0.336453 0.371466 -0.438179
v -0.335960 0.229320 -0.379554
v -0.335960 0.229320 -0.045125
v -0.336392 0.353718 -0.045125
v -0.336392 0.353718 -0.316197
v -0.336392 0.353718 -0.329750
v -0.336392 0.353718 -0.379554
v -0.335960 0.229319 0.286939
v -0.336392 0.353717 0.347930
v -0.336392 0.353717 0.334377
v -0.336392 0.353717 0.286939
v -0.284690 1.319921 -0.379553
v -0.258172 1.320013 -0.379553
v -0.336453 0.371466 -0.329750
v -0.336453 0.371466 -0.316197
v -0.336454 0.371466 -0.045125
v -0.336884 0.495542 -0.045125
v -0.336454 0.371465 0.286939
v -0.336454 0.371465 0.334377
v -0.336454 0.371465 0.347930
v -0.336884 0.495541 0.286939
v -0.336392 0.353718 -0.438179
v -0.378045 0.637385 0.239501
v -0.370944 0.637410 0.227913
v -0.370944 0.637410 0.225948
v -0.375033 0.637395 0.225948
v -0.378583 0.637383 0.227500
v -0.381182 0.637374 0.231742
v -0.382134 0.637371 0.237536
v -0.382134 0.637371 0.239501
v -0.370021 0.371349 0.347930
v -0.370021 0.371349 0.345965
v -0.377122 0.371324 0.334377
v -0.381210 0.371310 0.334377
v -0.381210 0.371310 0.336342
v -0.380259 0.371313 0.342136
v -0.377660 0.371322 0.346378
v -0.374110 0.371335 0.347930
v -0.336392 0.353717 0.225948
v -0.336454 0.371465 0.225948
v 0.333128 0.231642 -0.379554
v 0.332696 0.356041 -0.379554
v 0.333128 0.231641 0.286939
v 0.333128 0.231642 -0.045124
v 0.332696 0.356040 -0.045124
v 0.332696 0.356039 0.286939
v 0.332634 0.373788 0.286939
v 0.332635 0.373789 -0.045124
v 0.332635 0.373789 -0.379554
v 0.332204 0.497863 0.286939
v 0.332204 0.497864 -0.045124
v 0.332204 0.497864 -0.379554
v 0.331773 0.622100 0.286939
v 0.331773 0.622100 -0.045124
v 0.331773 0.622101 -0.379554
v 0.331711 0.639848 0.286939
v 0.331711 0.639849 -0.045124
v 0.331711 0.639849 -0.379554
v 0.331280 0.764085 0.286939
v 0.331280 0.764086 -0.045124
v 0.331280 0.764087 -0.379554
v -0.337316 0.619778 0.347930
v -0.337316 0.619778 0.334377
v -0.337316 0.619778 0.286939
v -0.337315 0.619779 -0.379554
v -0.337315 0.619779 -0.045124
v -0.337315 0.619779 -0.316197
v -0.337315 0.619779 -0.329750
v -0.337315 0.619779 -0.424626
v -0.337315 0.619779 -0.438179
v -0.337377 0.637527 -0.424626
v -0.337377 0.637527 -0.379554
v -0.337808 0.761764 -0.379554
v -0.337377 0.637527 -0.438179
v -0.337377 0.637527 -0.329750
v -0.337377 0.637527 -0.316197
v -0.337377 0.637527 -0.045124
v -0.337808 0.761764 -0.045124
v -0.337377 0.637526 0.286939
v -0.337377 0.637526 0.334377
v -0.337377 0.637526 0.347930
v -0.337808 0.761763 0.286939
v -0.365630 1.152132 -0.329750
v -0.365692 1.169880 -0.329750
v -0.369960 0.353601 0.347930
v -0.374048 0.353586 0.347930
v -0.337316 0.619778 0.225948
v -0.337377 0.637526 0.225948
v 0.330849 0.888324 -0.379554
v 0.330849 0.888322 0.286939
v 0.330849 0.888322 -0.045124
v 0.330787 0.906071 0.286939
v 0.330787 0.906071 -0.045124
v 0.330787 0.906072 -0.379554
v 0.330356 1.030308 0.286939
v 0.330356 1.030308 -0.045124
v 0.330356 1.030309 -0.379554
v -0.338239 0.886000 0.347930
v -0.338239 0.886000 0.334377
v -0.338239 0.886000 0.286939
v -0.338239 0.886001 -0.379554
v -0.338239 0.886001 -0.045124
v -0.338239 0.886001 -0.316197
v -0.338239 0.886001 -0.329750
v -0.338239 0.886001 -0.424626
v -0.338239 0.886001 -0.438179
v -0.338301 0.903749 -0.424626
v -0.338301 0.903749 -0.379554
v -0.338301 0.903749 -0.438179
v -0.338301 0.903749 -0.329750
v -0.338301 0.903749 -0.316197
v -0.338301 0.903749 -0.045124
v -0.338301 0.903748 0.286939
v -0.338301 0.903748 0.334377
v -0.338301 0.903748 0.347930
v -0.372792 1.169854 0.347930
v -0.372792 1.169854 0.345965
v -0.379893 1.169829 0.334377
v -0.383982 1.169815 0.334377
v -0.383982 1.169815 0.336342
v -0.383030 1.169818 0.342136
v -0.380431 1.169828 0.346378
v -0.376881 1.169840 0.347930
v -0.377060 0.353577 -0.329750
v -0.369959 0.353602 -0.318163
v -0.369959 0.353602 -0.316197
v -0.374048 0.353588 -0.316197
v -0.377598 0.353575 -0.317749
v -0.380197 0.353566 -0.321991
v -0.381148 0.353563 -0.327785
v -0.381148 0.353563 -0.329750
v -0.338239 0.886000 0.225948
v -0.338301 0.903748 0.225948
v 0.327604 0.231623 -0.379554
v 0.327604 0.231622 0.286939
v 0.327604 0.231623 -0.045124
v 0.329343 1.322051 0.286941
v -0.336392 0.353718 -0.424626
v 0.329343 1.322052 -0.045123
v 0.329344 1.322052 -0.379553
v 0.323819 1.322031 0.286940
v 0.323820 1.322033 -0.379553
v 0.323819 1.322032 -0.045123
v -0.339745 1.319730 -0.379553
v -0.339745 1.319730 -0.045123
v -0.339745 1.319728 0.286940
v -0.280906 0.229511 -0.379554
v -0.280601 0.141681 -0.379554
v -0.280906 0.229510 0.286939
v -0.280906 0.229511 -0.045125
v -0.280601 0.141681 -0.045125
v -0.280601 0.141680 0.286939
v -0.254083 0.141772 0.286939
v -0.254082 0.141773 -0.379554
v -0.254083 0.141773 -0.045125
v -0.312869 1.319823 -0.379553
v -0.284691 1.319920 0.286940
v -0.284690 1.319921 -0.045123
v -0.312870 1.319823 -0.045123
v -0.312870 1.319822 0.286940
v -0.309085 0.229412 0.286939
v -0.309085 0.229413 -0.045125
v -0.309085 0.229413 -0.379554
v -0.254387 0.229603 -0.379554
v -0.254388 0.229603 -0.045125
v -0.254388 0.229602 0.286939
v -0.372136 0.885884 -0.438179
v -0.372136 0.885884 -0.436214
v -0.379236 0.885859 -0.424626
v -0.382996 0.885846 -0.424626
v -0.382996 0.885846 -0.426591
v -0.382045 0.885849 -0.432385
v -0.379446 0.885858 -0.436627
v -0.375895 0.885871 -0.438179
v -0.382072 0.619623 0.239501
v -0.370944 0.637410 0.347930
v -0.370944 0.637410 0.345965
v -0.378045 0.637385 0.334377
v -0.381182 0.637374 0.342136
v -0.378583 0.637383 0.346378
v -0.375033 0.637395 0.347930
v -0.258172 1.320012 0.286940
v -0.383057 0.903594 -0.329750
v -0.382996 0.885846 -0.329750
v -0.382996 0.885846 -0.327785
v -0.383057 0.903594 -0.327785
v -0.372731 1.152106 0.225948
v -0.372731 1.152106 0.227913
v -0.379831 1.152081 0.239501
v -0.383920 1.152067 0.239501
v -0.383920 1.152067 0.237536
v -0.382969 1.152070 0.231742
v -0.380370 1.152079 0.227500
v -0.376819 1.152092 0.225948
v -0.339163 1.152222 0.239502
v -0.339225 1.169971 0.239502
v -0.365692 1.169879 0.239501
v -0.365630 1.152131 0.239501
v -0.258172 1.320013 -0.045123
v -0.377983 0.619638 -0.329750
v -0.370883 0.619663 -0.318162
v -0.370883 0.619663 -0.316197
v -0.374971 0.619648 -0.316197
v -0.378522 0.619636 -0.317749
v -0.381120 0.619627 -0.321991
v -0.382072 0.619624 -0.327785
v -0.382072 0.619624 -0.329750
v -0.370021 0.371349 0.225948
v -0.369959 0.353601 0.225948
v -0.374048 0.353587 0.225948
v -0.374110 0.371335 0.225948
v -0.372730 1.152107 -0.438179
v -0.372730 1.152107 -0.436214
v -0.379831 1.152082 -0.424626
v -0.383920 1.152068 -0.424626
v -0.383920 1.152068 -0.426591
v -0.382968 1.152071 -0.432385
v -0.380369 1.152081 -0.436627
v -0.376819 1.152093 -0.438179
v -0.372730 1.152107 -0.316197
v -0.376819 1.152093 -0.316197
v -0.370021 0.371350 -0.438179
v -0.369959 0.353602 -0.438179
v -0.374048 0.353588 -0.438179
v -0.374109 0.371336 -0.438179
v -0.370021 0.371350 -0.316197
v -0.374109 0.371336 -0.316197
v -0.370944 0.637411 -0.438179
v -0.370882 0.619663 -0.438179
v -0.374971 0.619648 -0.438179
v -0.375033 0.637397 -0.438179
v -0.370944 0.637411 -0.316197
v -0.375033 0.637397 -0.316197
v -0.372197 0.903632 -0.438179
v -0.375957 0.903619 -0.438179
v -0.371807 0.885885 -0.316197
v -0.371868 0.903633 -0.316197
v -0.375957 0.903619 -0.316197
v -0.375895 0.885871 -0.316197
v -0.372792 1.169854 0.225948
v -0.376881 1.169840 0.225948
v -0.370883 0.619662 0.225948
v -0.374972 0.619647 0.225948
v -0.371868 0.903632 0.225948
v -0.371807 0.885884 0.225948
v -0.375895 0.885869 0.225948
v -0.375957 0.903618 0.225948
v -0.379832 1.152081 0.334377
v -0.376820 1.152092 0.347930
v -0.380370 1.152079 0.346378
v -0.382969 1.152070 0.342136
v -0.383920 1.152067 0.336342
v -0.383920 1.152067 0.334377
v -0.377060 0.353576 0.334377
v -0.369960 0.353601 0.345965
v -0.377598 0.353574 0.346378
v -0.380197 0.353565 0.342136
v -0.381149 0.353562 0.336342
v -0.381149 0.353562 0.334377
v -0.377984 0.619637 0.334377
v -0.370883 0.619661 0.345965
v -0.370883 0.619661 0.347930
v -0.374972 0.619647 0.347930
v -0.378522 0.619635 0.346378
v -0.381121 0.619626 0.342136
v -0.371807 0.885884 0.347930
v -0.371869 0.903632 0.347930
v -0.375957 0.903618 0.347930
v -0.375895 0.885869 0.347930
v -0.378907 0.885860 -0.329750
v -0.371807 0.885885 -0.318162
v -0.379446 0.885858 -0.317749
v -0.382045 0.885849 -0.321991
v -0.371807 0.885884 0.227913
v -0.378907 0.885859 0.239501
v -0.382996 0.885845 0.239501
v -0.382996 0.885845 0.237536
v -0.382045 0.885848 0.231742
v -0.379446 0.885857 0.227500
v -0.362858 0.353626 -0.329750
v -0.378045 0.637386 -0.424626
v -0.370944 0.637411 -0.436214
v -0.378583 0.637384 -0.436627
v -0.381182 0.637375 -0.432385
v -0.382133 0.637372 -0.426591
v -0.382133 0.637372 -0.424626
v -0.381210 0.371310 0.239501
v -0.381149 0.353562 0.239501
v -0.381210 0.371311 -0.329750
v -0.381210 0.371311 -0.424626
v -0.381148 0.353563 -0.424626
v -0.383057 0.903594 -0.426591
v -0.383057 0.903594 -0.424626
v -0.369959 0.353602 -0.436214
v -0.377060 0.353577 -0.424626
v -0.381148 0.353563 -0.426591
v -0.380197 0.353566 -0.432385
v -0.377598 0.353575 -0.436627
v -0.383058 0.903593 0.237536
v -0.383058 0.903593 0.239501
v -0.372792 1.169855 -0.438179
v -0.376881 1.169841 -0.438179
v -0.370944 0.637411 -0.318162
v -0.378045 0.637386 -0.329750
v -0.382133 0.637372 -0.329750
v -0.382133 0.637372 -0.327785
v -0.381182 0.637375 -0.321991
v -0.378583 0.637384 -0.317749
v -0.371869 0.903632 0.345965
v -0.378969 0.903607 0.334377
v -0.383058 0.903593 0.334377
v -0.383058 0.903593 0.336342
v -0.382106 0.903596 0.342136
v -0.379507 0.903605 0.346378
v -0.362920 0.371373 0.334377
v -0.383920 1.152068 -0.329750
v -0.383920 1.152068 -0.327785
v -0.378907 0.885859 0.334377
v -0.371807 0.885884 0.345965
v -0.379446 0.885857 0.346378
v -0.382045 0.885848 0.342136
v -0.382996 0.885845 0.336342
v -0.382996 0.885845 0.334377
v -0.381210 0.371310 0.237536
v -0.381149 0.353562 0.237536
v -0.379893 1.169830 -0.424626
v -0.372792 1.169855 -0.436214
v -0.380431 1.169829 -0.436627
v -0.383030 1.169820 -0.432385
v -0.383981 1.169816 -0.426591
v -0.383981 1.169816 -0.424626
v -0.379298 0.903607 -0.424626
v -0.372197 0.903632 -0.436214
v -0.379507 0.903606 -0.436627
v -0.382106 0.903597 -0.432385
v -0.377121 0.371325 -0.424626
v -0.370021 0.371350 -0.436214
v -0.377660 0.371323 -0.436627
v -0.380259 0.371314 -0.432385
v -0.381210 0.371311 -0.426591
v -0.371868 0.903633 -0.318162
v -0.378969 0.903608 -0.329750
v -0.382106 0.903597 -0.321991
v -0.379507 0.903606 -0.317749
v -0.382072 0.619624 -0.424626
v -0.378969 0.903607 0.239501
v -0.371868 0.903632 0.227913
v -0.379507 0.903605 0.227500
v -0.382106 0.903596 0.231742
v -0.370944 0.637411 -0.413038
v -0.370944 0.637411 -0.341338
v -0.372731 1.152106 0.322789
v -0.372731 1.152106 0.251089
v -0.363844 0.637434 0.334377
v -0.370882 0.619663 -0.436214
v -0.377983 0.619638 -0.424626
v -0.382072 0.619624 -0.426591
v -0.381120 0.619627 -0.432385
v -0.378521 0.619636 -0.436627
v -0.362859 0.353625 0.334377
v -0.370883 0.619662 0.227913
v -0.377983 0.619637 0.239501
v -0.382072 0.619623 0.237536
v -0.381121 0.619626 0.231742
v -0.378522 0.619635 0.227500
v -0.383982 1.169815 0.237536
v -0.383982 1.169815 0.239501
v -0.377122 0.371324 0.239501
v -0.370021 0.371349 0.227913
v -0.377660 0.371322 0.227500
v -0.380259 0.371313 0.231742
v -0.365692 1.169880 -0.424626
v -0.365630 1.152132 -0.424626
v -0.379831 1.152082 -0.329750
v -0.372730 1.152107 -0.318162
v -0.380369 1.152080 -0.317749
v -0.382968 1.152071 -0.321991
v -0.364768 0.903658 -0.329750
v -0.381210 0.371311 -0.327785
v -0.379893 1.169829 0.239501
v -0.372792 1.169854 0.227913
v -0.380431 1.169828 0.227500
v -0.383030 1.169818 0.231742
v -0.370021 0.371350 -0.318163
v -0.377121 0.371325 -0.329750
v -0.380259 0.371314 -0.321991
v -0.377660 0.371323 -0.317749
v -0.365692 1.169879 0.334377
v -0.372792 1.169854 0.251089
v -0.372792 1.169854 0.322789
v -0.364706 0.885908 0.334377
v -0.338239 0.886000 0.239501
v -0.338301 0.903748 0.239501
v -0.364768 0.903656 0.239501
v -0.364706 0.885908 0.239501
v -0.371868 0.903632 0.251089
v -0.371869 0.903632 0.322789
v -0.371807 0.885884 0.322789
v -0.371807 0.885884 0.251089
v -0.370944 0.637410 0.322789
v -0.370944 0.637410 0.251089
v -0.370883 0.619662 0.251089
v -0.370883 0.619662 0.322789
v -0.370021 0.371349 0.322789
v -0.370021 0.371349 0.251089
v -0.369960 0.353601 0.251089
v -0.369960 0.353601 0.322789
v -0.337316 0.619778 0.239501
v -0.363782 0.619686 0.239501
v -0.377060 0.353576 0.239501
v -0.337377 0.637526 0.239501
v -0.363844 0.637434 0.239501
v -0.372730 1.152107 -0.413038
v -0.372730 1.152107 -0.341338
v -0.372792 1.169855 -0.413038
v -0.372792 1.169855 -0.341338
v -0.371908 0.903633 -0.341338
v -0.372157 0.903632 -0.413038
v -0.371847 0.885885 -0.341338
v -0.372096 0.885884 -0.413038
v -0.364706 0.885909 -0.329750
v -0.365097 0.903656 -0.424626
v -0.365035 0.885908 -0.424626
v -0.363782 0.619687 -0.329750
v -0.369959 0.353602 -0.413038
v -0.369959 0.353602 -0.341338
v -0.370883 0.619663 -0.341338
v -0.370882 0.619663 -0.413038
v -0.363782 0.619687 -0.424626
v -0.364768 0.903656 0.334377
v -0.370021 0.371350 -0.413038
v -0.370021 0.371350 -0.341338
v -0.362858 0.353626 -0.424626
v -0.363782 0.619686 0.334377
v -0.362920 0.371375 -0.329750
v -0.363844 0.637435 -0.424626
v -0.363844 0.637435 -0.329750
v -0.336392 0.353717 0.239501
v -0.336454 0.371465 0.239501
v -0.362920 0.371373 0.239501
v -0.362859 0.353625 0.239501
v -0.362920 0.371375 -0.424626
v -0.369959 0.353601 0.227913
v -0.371780 1.152109 0.328583
v -0.369181 1.152118 0.332824
v -0.369242 1.169866 0.332824
v -0.371841 1.169857 0.328583
v -0.371841 1.169857 0.245295
v -0.369242 1.169866 0.241054
v -0.369181 1.152118 0.241054
v -0.371780 1.152109 0.245295
v -0.370856 0.885887 0.328583
v -0.368257 0.885896 0.332824
v -0.368318 0.903644 0.332824
v -0.370917 0.903635 0.328583
v -0.370917 0.903635 0.245295
v -0.368318 0.903644 0.241054
v -0.368257 0.885896 0.241054
v -0.370856 0.885887 0.245295
v -0.367394 0.637422 0.332824
v -0.369993 0.637413 0.328583
v -0.369932 0.619665 0.328583
v -0.367333 0.619674 0.332824
v -0.366471 0.371361 0.332824
v -0.369070 0.371352 0.328583
v -0.369008 0.353604 0.328583
v -0.366409 0.353613 0.332824
v -0.367333 0.619674 0.241054
v -0.369932 0.619665 0.245295
v -0.369993 0.637413 0.245295
v -0.367394 0.637422 0.241054
v -0.369180 1.152119 -0.423073
v -0.371779 1.152110 -0.418832
v -0.371841 1.169858 -0.418832
v -0.369242 1.169867 -0.423073
v -0.371779 1.152110 -0.335544
v -0.369180 1.152119 -0.331303
v -0.369242 1.169867 -0.331303
v -0.371841 1.169858 -0.335544
v -0.368323 0.903645 -0.331303
v -0.370937 0.903636 -0.335544
v -0.370875 0.885888 -0.335544
v -0.368262 0.885897 -0.331303
v -0.368580 0.885896 -0.423073
v -0.371164 0.885887 -0.418832
v -0.371226 0.903635 -0.418832
v -0.368642 0.903644 -0.423073
v -0.369931 0.619666 -0.335544
v -0.367332 0.619675 -0.331303
v -0.367394 0.637423 -0.331303
v -0.369993 0.637414 -0.335544
v -0.369008 0.353605 -0.335544
v -0.366409 0.353614 -0.331303
v -0.366471 0.371362 -0.331303
v -0.369070 0.371353 -0.335544
v -0.367332 0.619675 -0.423073
v -0.369931 0.619666 -0.418832
v -0.369993 0.637414 -0.418832
v -0.367394 0.637423 -0.423073
v -0.366409 0.353614 -0.423073
v -0.369008 0.353605 -0.418832
v -0.369069 0.371353 -0.418832
v -0.366471 0.371362 -0.423073
v -0.369070 0.371352 0.245295
v -0.366471 0.371361 0.241054
v -0.366409 0.353613 0.241054
v -0.369008 0.353604 0.245295
v -0.380197 0.353565 0.231742
v -0.377598 0.353574 0.227500
vt 0.025641 0.270804
vt 0.025641 0.262130
vt 0.010610 0.262130
vt 0.010610 0.270804
vt 0.388335 0.100974
vt 0.388335 0.091765
vt 0.402997 0.091765
vt 0.402997 0.100974
vt 0.056232 0.270804
vt 0.056232 0.262130
vt 0.041401 0.262130
vt 0.041401 0.270804
vt 0.381727 0.270804
vt 0.381727 0.262130
vt 0.352685 0.192682
vt 0.368399 0.192682
vt 0.368399 0.161010
vt 0.352685 0.161010
vt 0.419520 0.986086
vt 0.419520 0.998512
vt 0.462338 0.998512
vt 0.462338 0.986086
vt 0.025070 0.342218
vt 0.007636 0.342218
vt 0.007636 0.375285
vt 0.025070 0.375285
vt 0.388335 0.453793
vt 0.388335 0.445331
vt 0.402997 0.445331
vt 0.402998 0.453793
vt 0.000154 0.205919
vt 0.000154 0.212570
vt 0.002523 0.212570
vt 0.002523 0.205919
vt 0.000154 0.483234
vt 0.000154 0.490472
vt 0.002523 0.490472
vt 0.002523 0.483234
vt 0.025641 0.633247
vt 0.025641 0.623807
vt 0.010610 0.623807
vt 0.010610 0.633247
vt 0.056232 0.633247
vt 0.056232 0.623807
vt 0.041401 0.623807
vt 0.041401 0.633247
vt 0.381727 0.633247
vt 0.381727 0.623807
vt 0.389957 0.387851
vt 0.403092 0.387851
vt 0.403092 0.433114
vt 0.389957 0.433114
vt 0.634561 0.736192
vt 0.634561 0.783341
vt 0.629303 0.783341
vt 0.629303 0.736192
vt 0.009937 0.425000
vt 0.380105 0.425000
vt 0.380105 0.458995
vt 0.009937 0.458995
vt 0.027997 0.984719
vt 0.027997 0.997534
vt 0.068578 0.997534
vt 0.068578 0.984719
vt 0.267530 0.986289
vt 0.267530 0.998085
vt 0.247859 0.998085
vt 0.247859 0.986289
vt 0.699236 0.986289
vt 0.699236 0.998809
vt 0.705061 0.986328
vt 0.705061 0.998509
vt 0.248005 0.998147
vt 0.248005 0.986328
vt 0.227179 0.998147
vt 0.227179 0.986328
vt 0.205049 0.998095
vt 0.205049 0.986328
vt 0.226956 0.998085
vt 0.226956 0.986289
vt 0.385097 0.192682
vt 0.385097 0.161010
vt 0.389989 0.537873
vt 0.403244 0.537873
vt 0.403244 0.579847
vt 0.389989 0.579847
vt 0.384645 0.342218
vt 0.024584 0.342218
vt 0.024584 0.375285
vt 0.384645 0.375285
vt 0.368544 0.271311
vt 0.352864 0.271311
vt 0.352864 0.239709
vt 0.368544 0.239709
vt 0.033052 0.469192
vt 0.056301 0.469192
vt 0.056301 0.513288
vt 0.033052 0.513288
vt 0.008753 0.271311
vt 0.008753 0.239709
vt 0.385205 0.271311
vt 0.385205 0.239709
vt 0.007815 0.192682
vt 0.007815 0.161010
vt 0.402293 0.151977
vt 0.389076 0.151977
vt 0.389076 0.127996
vt 0.402293 0.127996
vt 0.402895 0.096240
vt 0.389002 0.096240
vt 0.389002 0.120282
vt 0.402895 0.120282
vt 0.000120 0.526529
vt 0.000120 0.518587
vt 0.002719 0.518587
vt 0.002719 0.526529
vt 0.402438 0.667813
vt 0.389078 0.667813
vt 0.389078 0.654470
vt 0.402438 0.654470
vt 0.402827 0.145702
vt 0.388957 0.145702
vt 0.388957 0.169385
vt 0.402827 0.169385
vt 0.402293 0.669828
vt 0.389076 0.669828
vt 0.389076 0.174544
vt 0.402293 0.174544
vt 0.402827 0.120535
vt 0.388957 0.120535
vt 0.402438 0.111474
vt 0.389078 0.111474
vt 0.389078 0.096954
vt 0.402438 0.096954
vt 0.402488 0.128071
vt 0.389062 0.128071
vt 0.389062 0.104837
vt 0.402488 0.104837
vt 0.388957 0.689165
vt 0.402827 0.689165
vt 0.413056 0.010775
vt 0.413056 0.024264
vt 0.427716 0.024264
vt 0.427716 0.010775
vt 0.975934 0.010775
vt 0.975934 0.024264
vt 0.989405 0.024264
vt 0.989405 0.010775
vt 0.000120 0.221580
vt 0.000120 0.214281
vt 0.002719 0.214281
vt 0.002719 0.221580
vt 0.000088 0.254973
vt 0.000088 0.248021
vt 0.002561 0.248021
vt 0.002561 0.254973
vt 0.000181 0.352966
vt 0.000181 0.359299
vt 0.002434 0.359299
vt 0.002434 0.352966
vt 0.352685 0.480685
vt 0.352685 0.435884
vt 0.007815 0.435884
vt 0.007815 0.480685
vt 0.352685 0.429484
vt 0.007815 0.429484
vt 0.352685 0.384684
vt 0.007815 0.384684
vt 0.000088 0.400020
vt 0.000088 0.366176
vt 0.002561 0.366176
vt 0.002561 0.400020
vt 0.000088 0.361341
vt 0.002561 0.361341
vt 0.000088 0.327497
vt 0.002561 0.327497
vt 0.388241 0.723871
vt 0.388241 0.682607
vt 0.402909 0.682607
vt 0.402909 0.723871
vt 0.388241 0.676713
vt 0.402909 0.676713
vt 0.388241 0.635449
vt 0.402909 0.635449
vt 0.389446 0.067559
vt 0.313756 0.067559
vt 0.313756 0.050662
vt 0.389446 0.050662
vt 0.302943 0.067559
vt 0.302943 0.050662
vt 0.227252 0.067559
vt 0.227252 0.050662
vt 0.352864 0.558681
vt 0.352864 0.513979
vt 0.368544 0.513979
vt 0.368544 0.558681
vt 0.352864 0.507593
vt 0.368544 0.507593
vt 0.352864 0.462891
vt 0.368544 0.462891
vt 0.385097 0.480685
vt 0.385097 0.435884
vt 0.368399 0.435884
vt 0.368399 0.480685
vt 0.385097 0.429484
vt 0.368399 0.429484
vt 0.385097 0.384684
vt 0.368399 0.384684
vt 0.008753 0.558681
vt 0.008753 0.513979
vt 0.008753 0.507593
vt 0.008753 0.462891
vt 0.389446 0.714986
vt 0.313756 0.714986
vt 0.313756 0.699458
vt 0.389446 0.699458
vt 0.302943 0.714986
vt 0.302943 0.699458
vt 0.227252 0.714986
vt 0.227252 0.699458
vt 0.402950 0.723833
vt 0.402950 0.682890
vt 0.388397 0.682890
vt 0.388397 0.723833
vt 0.402950 0.677041
vt 0.388397 0.677041
vt 0.402950 0.636099
vt 0.388397 0.636099
vt 0.385205 0.513979
vt 0.385205 0.558681
vt 0.385205 0.507593
vt 0.385205 0.462891
vt 0.000181 0.425363
vt 0.000181 0.456193
vt 0.002434 0.456193
vt 0.002434 0.425363
vt 0.000181 0.460597
vt 0.002434 0.460597
vt 0.000181 0.491427
vt 0.002434 0.491427
vt 0.975934 0.164979
vt 0.975934 0.230646
vt 0.989405 0.230646
vt 0.989405 0.164979
vt 0.975934 0.240027
vt 0.989405 0.240027
vt 0.975934 0.305694
vt 0.989405 0.305694
vt 0.413056 0.164979
vt 0.413056 0.230646
vt 0.427716 0.230646
vt 0.427716 0.164979
vt 0.413056 0.240027
vt 0.427716 0.240027
vt 0.413056 0.305694
vt 0.427716 0.305694
vt 0.352685 0.339883
vt 0.007815 0.339883
vt 0.352685 0.333483
vt 0.007815 0.333483
vt 0.352685 0.288683
vt 0.007815 0.288683
vt 0.000088 0.472543
vt 0.000088 0.438699
vt 0.002561 0.438699
vt 0.002561 0.472543
vt 0.000088 0.433864
vt 0.002561 0.433864
vt 0.388342 0.723804
vt 0.388342 0.682175
vt 0.403140 0.682175
vt 0.403140 0.723804
vt 0.388342 0.676228
vt 0.403140 0.676228
vt 0.388342 0.634599
vt 0.403140 0.634599
vt 0.389278 0.047781
vt 0.310449 0.047781
vt 0.310449 0.030182
vt 0.389278 0.030182
vt 0.299188 0.047781
vt 0.299188 0.030182
vt 0.220358 0.047781
vt 0.220358 0.030182
vt 0.352864 0.418189
vt 0.368544 0.418189
vt 0.352864 0.411803
vt 0.368544 0.411803
vt 0.352864 0.367101
vt 0.368544 0.367101
vt 0.385097 0.339883
vt 0.368399 0.339883
vt 0.385097 0.333483
vt 0.368399 0.333483
vt 0.385097 0.288683
vt 0.368399 0.288683
vt 0.008753 0.418189
vt 0.008753 0.411803
vt 0.008753 0.367101
vt 0.389279 0.722056
vt 0.310449 0.722056
vt 0.310449 0.705884
vt 0.389279 0.705884
vt 0.299188 0.722056
vt 0.299188 0.705884
vt 0.220358 0.722056
vt 0.220358 0.705884
vt 0.403225 0.723656
vt 0.403225 0.681533
vt 0.388252 0.681533
vt 0.388252 0.723656
vt 0.403225 0.675515
vt 0.388252 0.675515
vt 0.403225 0.633392
vt 0.388252 0.633392
vt 0.385205 0.418189
vt 0.385205 0.411803
vt 0.385205 0.367101
vt 0.000181 0.522257
vt 0.002434 0.522257
vt 0.000181 0.526661
vt 0.002434 0.526661
vt 0.000181 0.557491
vt 0.002434 0.557491
vt 0.975934 0.371361
vt 0.989405 0.371361
vt 0.975934 0.380742
vt 0.989405 0.380742
vt 0.975934 0.446409
vt 0.989405 0.446409
vt 0.413056 0.371361
vt 0.427716 0.371361
vt 0.413056 0.380742
vt 0.427716 0.380742
vt 0.413056 0.446409
vt 0.427716 0.446409
vt 0.000088 0.545067
vt 0.000088 0.511179
vt 0.002561 0.511179
vt 0.002561 0.545067
vt 0.000088 0.506344
vt 0.002561 0.506344
vt 0.413056 0.511990
vt 0.427716 0.511990
vt 0.413056 0.521371
vt 0.427716 0.521371
vt 0.413056 0.587124
vt 0.427716 0.587124
vt 0.975934 0.511990
vt 0.989405 0.511990
vt 0.975934 0.521371
vt 0.989405 0.521371
vt 0.975934 0.587124
vt 0.989405 0.587124
vt 0.000181 0.588281
vt 0.002434 0.588281
vt 0.000181 0.592685
vt 0.002434 0.592685
vt 0.000181 0.623555
vt 0.002434 0.623555
vt 0.368544 0.322457
vt 0.385205 0.322457
vt 0.368544 0.316071
vt 0.385205 0.316071
vt 0.402970 0.723673
vt 0.402970 0.682714
vt 0.388392 0.682714
vt 0.388392 0.723673
vt 0.402970 0.676855
vt 0.388392 0.676855
vt 0.402970 0.635790
vt 0.388392 0.635790
vt 0.389408 0.713672
vt 0.309934 0.713672
vt 0.309934 0.697347
vt 0.389408 0.697347
vt 0.298566 0.713672
vt 0.298566 0.697347
vt 0.218886 0.713672
vt 0.218886 0.697347
vt 0.368399 0.243940
vt 0.352685 0.243940
vt 0.368399 0.237540
vt 0.352685 0.237540
vt 0.008753 0.322457
vt 0.352864 0.322457
vt 0.008753 0.316071
vt 0.352864 0.316071
vt 0.385097 0.243940
vt 0.385097 0.237540
vt 0.389408 0.032999
vt 0.309934 0.032999
vt 0.309934 0.015234
vt 0.389408 0.015234
vt 0.298566 0.032999
vt 0.298566 0.015234
vt 0.218885 0.032999
vt 0.218885 0.015234
vt 0.388312 0.723805
vt 0.388312 0.682584
vt 0.402984 0.682584
vt 0.402984 0.723805
vt 0.388312 0.676688
vt 0.402984 0.676688
vt 0.388312 0.635360
vt 0.402984 0.635360
vt 0.007815 0.243940
vt 0.007815 0.237540
vt 0.352685 0.576686
vt 0.352685 0.531886
vt 0.007815 0.531886
vt 0.007815 0.576686
vt 0.352685 0.525485
vt 0.007815 0.525485
vt 0.388109 0.723364
vt 0.388109 0.681417
vt 0.403020 0.681417
vt 0.403020 0.723364
vt 0.388109 0.675425
vt 0.403020 0.675425
vt 0.388109 0.633478
vt 0.403020 0.633478
vt 0.388665 0.027714
vt 0.308321 0.027714
vt 0.308321 0.009777
vt 0.388665 0.009777
vt 0.296844 0.027714
vt 0.296844 0.009777
vt 0.216500 0.027714
vt 0.216500 0.009777
vt 0.352864 0.654471
vt 0.352864 0.609769
vt 0.368544 0.609769
vt 0.368544 0.654471
vt 0.352864 0.603383
vt 0.368544 0.603383
vt 0.385097 0.576686
vt 0.385097 0.531886
vt 0.368399 0.531886
vt 0.368399 0.576686
vt 0.385097 0.525485
vt 0.368399 0.525485
vt 0.008753 0.654471
vt 0.008753 0.609769
vt 0.008753 0.603383
vt 0.388665 0.714943
vt 0.308321 0.714943
vt 0.308321 0.698460
vt 0.388665 0.698460
vt 0.296844 0.714943
vt 0.296844 0.698460
vt 0.216500 0.714943
vt 0.216500 0.698460
vt 0.403159 0.723317
vt 0.403159 0.681812
vt 0.388405 0.681812
vt 0.388405 0.723317
vt 0.403159 0.675883
vt 0.388405 0.675883
vt 0.403159 0.634378
vt 0.388405 0.634378
vt 0.385205 0.609769
vt 0.385205 0.654471
vt 0.385205 0.603383
vt 0.000181 0.390129
vt 0.002434 0.390129
vt 0.000181 0.394533
vt 0.002434 0.394533
vt 0.975934 0.089931
vt 0.989405 0.089931
vt 0.975934 0.099312
vt 0.989405 0.099312
vt 0.413056 0.089931
vt 0.427716 0.089931
vt 0.413056 0.099312
vt 0.427716 0.099312
vt 0.000088 0.293652
vt 0.002561 0.293652
vt 0.000088 0.288818
vt 0.002561 0.288818
vt 0.525097 0.089931
vt 0.525097 0.099312
vt 0.701825 0.099312
vt 0.701825 0.089931
vt 0.879812 0.089931
vt 0.879812 0.099312
vt 0.525097 0.024264
vt 0.701825 0.024264
vt 0.879812 0.024264
vt 0.216500 0.146860
vt 0.296844 0.107144
vt 0.296844 0.115970
vt 0.296844 0.146860
vt 0.296844 0.580855
vt 0.216500 0.580855
vt 0.216500 0.363087
vt 0.296844 0.363087
vt 0.296844 0.539599
vt 0.296844 0.548425
vt 0.296844 0.610204
vt 0.296844 0.619030
vt 0.308321 0.610204
vt 0.308321 0.580855
vt 0.388665 0.580855
vt 0.308321 0.619030
vt 0.308321 0.548425
vt 0.308321 0.539599
vt 0.308321 0.363087
vt 0.388665 0.363087
vt 0.308321 0.146860
vt 0.308321 0.115970
vt 0.308321 0.107144
vt 0.388665 0.146860
vt 0.657963 0.851448
vt 0.626152 0.851448
vt 0.626152 0.722869
vt 0.630765 0.722869
vt 0.657963 0.750068
vt 0.670990 0.753857
vt 0.674631 0.753857
vt 0.696098 0.732390
vt 0.696098 0.720029
vt 0.692457 0.720029
vt 0.681723 0.722905
vt 0.673866 0.730763
vt 0.670990 0.741496
vt 0.296844 0.186575
vt 0.308321 0.186575
vt 0.309934 0.609933
vt 0.309934 0.580864
vt 0.389408 0.580864
vt 0.309934 0.618674
vt 0.218886 0.580864
vt 0.218885 0.365173
vt 0.298566 0.365173
vt 0.298566 0.540001
vt 0.298566 0.548743
vt 0.298566 0.580864
vt 0.218885 0.151008
vt 0.298566 0.111672
vt 0.298566 0.120413
vt 0.298566 0.151008
vt 0.041401 0.332698
vt 0.056232 0.332698
vt 0.309934 0.548743
vt 0.309934 0.540001
vt 0.309934 0.365173
vt 0.389408 0.365173
vt 0.309934 0.151008
vt 0.309934 0.120413
vt 0.309934 0.111672
vt 0.389408 0.151008
vt 0.298566 0.618674
vt 0.875178 0.700368
vt 0.900553 0.725743
vt 0.904857 0.725743
vt 0.904857 0.711131
vt 0.901458 0.698444
vt 0.892170 0.689156
vt 0.879482 0.685756
vt 0.875178 0.685756
vt 0.628588 0.730184
vt 0.633059 0.730184
vt 0.659415 0.703828
vt 0.659415 0.688652
vt 0.654944 0.688652
vt 0.641766 0.692183
vt 0.632119 0.701830
vt 0.628588 0.715008
vt 0.298566 0.190345
vt 0.309934 0.190345
vt 0.879812 0.587124
vt 0.879812 0.521371
vt 0.525097 0.587124
vt 0.701825 0.587124
vt 0.701825 0.521371
vt 0.525097 0.521371
vt 0.525097 0.511990
vt 0.701825 0.511990
vt 0.879812 0.511990
vt 0.525097 0.446409
vt 0.701825 0.446409
vt 0.879812 0.446409
vt 0.525097 0.380742
vt 0.701825 0.380742
vt 0.879812 0.380742
vt 0.525097 0.371361
vt 0.701825 0.371361
vt 0.879812 0.371361
vt 0.525097 0.305694
vt 0.701825 0.305694
vt 0.879812 0.305694
vt 0.220358 0.164680
vt 0.299188 0.125714
vt 0.299188 0.134373
vt 0.299188 0.164680
vt 0.299188 0.590496
vt 0.220358 0.590496
vt 0.220358 0.376832
vt 0.299188 0.376832
vt 0.299188 0.550017
vt 0.299188 0.558677
vt 0.299188 0.619291
vt 0.299188 0.627951
vt 0.310449 0.619291
vt 0.310449 0.590496
vt 0.389279 0.590496
vt 0.310449 0.627951
vt 0.310449 0.558677
vt 0.310449 0.550017
vt 0.310449 0.376832
vt 0.389279 0.376832
vt 0.310449 0.164680
vt 0.310449 0.134373
vt 0.310449 0.125714
vt 0.389278 0.164680
vt 0.783539 0.734277
vt 0.828545 0.734277
vt 0.828545 0.844563
vt 0.783539 0.844563
vt 0.730997 0.805429
vt 0.730997 0.757056
vt 0.712686 0.757056
vt 0.712686 0.805429
vt 0.299188 0.203647
vt 0.310449 0.203647
vt 0.879812 0.240027
vt 0.525097 0.240027
vt 0.701825 0.240027
vt 0.525097 0.230646
vt 0.701825 0.230646
vt 0.879812 0.230646
vt 0.525097 0.164979
vt 0.701825 0.164979
vt 0.879812 0.164979
vt 0.227252 0.179804
vt 0.302943 0.142389
vt 0.302943 0.150704
vt 0.302943 0.179804
vt 0.302943 0.588664
vt 0.227252 0.588664
vt 0.227252 0.383509
vt 0.302943 0.383509
vt 0.302943 0.549798
vt 0.302943 0.558112
vt 0.302943 0.616313
vt 0.302943 0.624628
vt 0.313756 0.616313
vt 0.313756 0.588664
vt 0.389446 0.588664
vt 0.313756 0.624628
vt 0.313756 0.558112
vt 0.313756 0.549798
vt 0.313756 0.383509
vt 0.389446 0.383509
vt 0.313756 0.179804
vt 0.313756 0.150704
vt 0.313756 0.142389
vt 0.389446 0.179804
vt 0.624446 0.721558
vt 0.628986 0.721558
vt 0.655750 0.694794
vt 0.655750 0.679383
vt 0.651210 0.679383
vt 0.637828 0.682969
vt 0.628032 0.692765
vt 0.624446 0.706147
vt 0.686743 0.725621
vt 0.662991 0.749372
vt 0.658962 0.749372
vt 0.658962 0.735696
vt 0.662145 0.723820
vt 0.670838 0.715126
vt 0.682714 0.711944
vt 0.686743 0.711944
vt 0.302943 0.217219
vt 0.313756 0.217219
vt 0.000120 0.273655
vt 0.002719 0.273655
vt 0.000120 0.465829
vt 0.000120 0.370083
vt 0.002719 0.370083
vt 0.002719 0.465829
vt 0.525097 0.010775
vt 0.298566 0.609933
vt 0.701825 0.010775
vt 0.879812 0.010775
vt 0.000154 0.435155
vt 0.002523 0.435155
vt 0.000154 0.260027
vt 0.000154 0.347902
vt 0.002523 0.347902
vt 0.002523 0.260027
vt 0.389078 0.559264
vt 0.402438 0.559264
vt 0.389078 0.382972
vt 0.402438 0.382972
vt 0.389078 0.207927
vt 0.402438 0.207927
vt 0.075977 0.383684
vt 0.010383 0.383684
vt 0.010383 0.352005
vt 0.075977 0.352005
vt 0.318038 0.383684
vt 0.197437 0.383684
vt 0.197437 0.352005
vt 0.318038 0.352005
vt 0.384491 0.383684
vt 0.384491 0.352005
vt 0.350478 0.986188
vt 0.403669 0.986188
vt 0.403669 0.998769
vt 0.350478 0.998769
vt 0.597419 0.998769
vt 0.500200 0.998769
vt 0.500200 0.986188
vt 0.597419 0.986188
vt 0.649922 0.998769
vt 0.649922 0.986188
vt 0.025641 0.332698
vt 0.041401 0.561103
vt 0.041401 0.447306
vt 0.025641 0.447306
vt 0.025641 0.561103
vt 0.007559 0.302744
vt 0.074612 0.302744
vt 0.074612 0.319597
vt 0.007559 0.319597
vt 0.318859 0.319597
vt 0.196302 0.319597
vt 0.196302 0.302744
vt 0.318859 0.302744
vt 0.385045 0.302744
vt 0.385045 0.319597
vt 0.388335 0.384954
vt 0.402997 0.384954
vt 0.388335 0.273153
vt 0.402997 0.273153
vt 0.402997 0.162143
vt 0.388335 0.162143
vt 0.315677 0.524807
vt 0.315677 0.184538
vt 0.380380 0.184538
vt 0.380380 0.524807
vt 0.195868 0.524807
vt 0.195868 0.184538
vt 0.011356 0.184538
vt 0.076906 0.184538
vt 0.076906 0.524807
vt 0.011356 0.524807
vt 0.913304 0.736214
vt 0.909136 0.736214
vt 0.884565 0.711643
vt 0.884565 0.698633
vt 0.888733 0.698633
vt 0.901018 0.701925
vt 0.910012 0.710919
vt 0.913304 0.723204
vt 0.010610 0.332698
vt 0.888344 0.736192
vt 0.888344 0.783341
vt 0.637744 0.725743
vt 0.642048 0.725743
vt 0.667423 0.700368
vt 0.667423 0.685756
vt 0.663119 0.685756
vt 0.650432 0.689156
vt 0.641144 0.698444
vt 0.637744 0.711131
vt 0.010610 0.447306
vt 0.010610 0.561103
vt 0.056232 0.561103
vt 0.749147 0.753731
vt 0.749147 0.784950
vt 0.745665 0.784950
vt 0.745665 0.753731
vt 0.912458 0.722869
vt 0.907844 0.722869
vt 0.880646 0.695671
vt 0.880646 0.680010
vt 0.885260 0.680010
vt 0.898859 0.683654
vt 0.908814 0.693609
vt 0.912458 0.707208
vt 0.900127 0.800590
vt 0.900127 0.741272
vt 0.754768 0.741272
vt 0.754768 0.800590
vt 0.056232 0.447306
vt 0.697024 0.717831
vt 0.675783 0.739072
vt 0.672180 0.739072
vt 0.672180 0.726841
vt 0.675026 0.716221
vt 0.682800 0.708446
vt 0.693421 0.705601
vt 0.697024 0.705601
vt 0.381727 0.332698
vt 0.381727 0.561103
vt 0.381727 0.447306
vt 0.008862 0.395454
vt 0.075392 0.395454
vt 0.075392 0.363738
vt 0.008862 0.363738
vt 0.196131 0.395454
vt 0.317729 0.395454
vt 0.317729 0.363738
vt 0.196131 0.363738
vt 0.383399 0.363738
vt 0.383399 0.395454
vt 0.730997 0.757056
vt 0.730997 0.805429
vt 0.712686 0.805429
vt 0.712686 0.757056
vt 0.880530 0.762769
vt 0.877418 0.762769
vt 0.859073 0.744424
vt 0.859073 0.733861
vt 0.862185 0.733861
vt 0.871357 0.736319
vt 0.878072 0.743033
vt 0.880530 0.752205
vt 0.642815 0.793084
vt 0.642815 0.762922
vt 0.631397 0.762922
vt 0.631397 0.793084
vt 0.651512 0.771425
vt 0.651512 0.801357
vt 0.640181 0.801357
vt 0.640181 0.771425
vt 0.651512 0.801357
vt 0.651512 0.771425
vt 0.640181 0.771425
vt 0.640181 0.801357
vt 0.637977 0.758027
vt 0.637977 0.789278
vt 0.626146 0.789278
vt 0.626146 0.758027
vt 0.637977 0.789278
vt 0.637977 0.758027
vt 0.626146 0.758027
vt 0.626146 0.789278
vt 0.637727 0.753731
vt 0.637727 0.784950
vt 0.626860 0.784950
vt 0.626860 0.753731
vt 0.638678 0.784950
vt 0.638678 0.753731
vt 0.626860 0.753731
vt 0.626860 0.784950
vt 0.727699 0.746068
vt 0.727699 0.791802
vt 0.710386 0.791802
vt 0.710386 0.746068
vt 0.732652 0.736192
vt 0.732652 0.783341
vt 0.714804 0.783341
vt 0.714804 0.736192
vt 0.726757 0.747194
vt 0.726757 0.791487
vt 0.709989 0.791487
vt 0.709989 0.747194
vt 0.657963 0.695671
vt 0.626152 0.707208
vt 0.629796 0.693609
vt 0.639751 0.683654
vt 0.653350 0.680010
vt 0.657963 0.680010
vt 0.664941 0.716029
vt 0.639447 0.741523
vt 0.635123 0.741523
vt 0.635123 0.726843
vt 0.638538 0.714096
vt 0.647870 0.704765
vt 0.660616 0.701349
vt 0.664941 0.701349
vt 0.669420 0.718848
vt 0.645020 0.743247
vt 0.640881 0.743247
vt 0.640881 0.729197
vt 0.644150 0.716998
vt 0.653081 0.708067
vt 0.665281 0.704798
vt 0.669420 0.704798
vt 0.726757 0.791487
vt 0.726757 0.747194
vt 0.709989 0.747194
vt 0.709989 0.791487
vt 0.683388 0.712782
vt 0.658816 0.737353
vt 0.654648 0.737353
vt 0.654648 0.723204
vt 0.657940 0.710919
vt 0.666934 0.701925
vt 0.679220 0.698633
vt 0.683388 0.698633
vt 0.900649 0.726608
vt 0.896223 0.726608
vt 0.870131 0.700516
vt 0.870131 0.685491
vt 0.874557 0.685491
vt 0.887603 0.688987
vt 0.897153 0.698538
vt 0.900649 0.711584
vt 0.686743 0.861659
vt 0.658962 0.861659
vt 0.686743 0.773124
vt 0.869523 0.731390
vt 0.890420 0.752287
vt 0.893965 0.752287
vt 0.893965 0.740254
vt 0.891165 0.729805
vt 0.883516 0.722156
vt 0.873067 0.719357
vt 0.869523 0.719357
vt 0.890728 0.757056
vt 0.890728 0.805429
vt 0.630361 0.805429
vt 0.630361 0.757056
vt 0.758267 0.771425
vt 0.919372 0.771425
vt 0.919372 0.801357
vt 0.758267 0.801357
vt 0.920666 0.753731
vt 0.920666 0.784950
vt 0.917185 0.784950
vt 0.917185 0.753731
vt 0.908990 0.749372
vt 0.904961 0.749372
vt 0.881209 0.725621
vt 0.881209 0.711944
vt 0.885238 0.711944
vt 0.897114 0.715126
vt 0.905808 0.723820
vt 0.908990 0.735696
vt 0.877957 0.747194
vt 0.877957 0.791487
vt 0.873018 0.791487
vt 0.873018 0.747194
vt 0.642815 0.762922
vt 0.642815 0.793084
vt 0.631397 0.793084
vt 0.631397 0.762922
vt 0.673988 0.752287
vt 0.677532 0.752287
vt 0.698430 0.731390
vt 0.698430 0.719357
vt 0.694885 0.719357
vt 0.684436 0.722156
vt 0.676787 0.729805
vt 0.673988 0.740254
vt 0.727699 0.791802
vt 0.727699 0.746068
vt 0.710386 0.746068
vt 0.710386 0.791802
vt 0.732652 0.783341
vt 0.732652 0.736192
vt 0.714804 0.736192
vt 0.714804 0.783341
vt 0.625235 0.735563
vt 0.629556 0.735563
vt 0.655033 0.710087
vt 0.655033 0.695417
vt 0.650711 0.695417
vt 0.637973 0.698830
vt 0.628648 0.708155
vt 0.625235 0.720893
vt 0.628588 0.854782
vt 0.659415 0.854782
vt 0.659415 0.756541
vt 0.749744 0.762922
vt 0.749744 0.793084
vt 0.746380 0.793084
vt 0.746380 0.762922
vt 0.656503 0.700516
vt 0.630411 0.726608
vt 0.625985 0.726608
vt 0.625985 0.711584
vt 0.629481 0.698538
vt 0.639031 0.688987
vt 0.652077 0.685491
vt 0.656503 0.685491
vt 0.632552 0.746068
vt 0.632552 0.791802
vt 0.627452 0.791802
vt 0.627452 0.746068
vt 0.896122 0.757056
vt 0.896122 0.805429
vt 0.871854 0.732390
vt 0.893321 0.753857
vt 0.896962 0.753857
vt 0.896962 0.741496
vt 0.894086 0.730763
vt 0.886229 0.722905
vt 0.875496 0.720029
vt 0.871854 0.720029
vt 0.867969 0.734585
vt 0.888487 0.755102
vt 0.891967 0.755102
vt 0.891967 0.744239
vt 0.889218 0.733980
vt 0.881708 0.726470
vt 0.871450 0.723721
vt 0.867969 0.723721
vt 0.876910 0.728326
vt 0.899611 0.751028
vt 0.903462 0.751028
vt 0.903462 0.737956
vt 0.900420 0.726605
vt 0.892111 0.718295
vt 0.880760 0.715254
vt 0.876910 0.715254
vt 0.675985 0.756053
vt 0.679465 0.756053
vt 0.699983 0.735536
vt 0.699983 0.723721
vt 0.696503 0.723721
vt 0.686244 0.726470
vt 0.678734 0.733980
vt 0.675985 0.744239
vt 0.748598 0.758027
vt 0.916809 0.758027
vt 0.916809 0.789278
vt 0.748598 0.789278
vt 0.624966 0.805429
vt 0.624966 0.757056
vt 0.863617 0.710087
vt 0.889093 0.735563
vt 0.893415 0.735563
vt 0.893415 0.720893
vt 0.890002 0.708155
vt 0.880677 0.698830
vt 0.867939 0.695417
vt 0.863617 0.695417
vt 0.848626 0.752287
vt 0.719327 0.752287
vt 0.685162 0.722869
vt 0.853448 0.722869
vt 0.637744 0.845702
vt 0.667423 0.845702
vt 0.667423 0.751118
vt 0.895772 0.739072
vt 0.892169 0.739072
vt 0.870929 0.717831
vt 0.870929 0.705601
vt 0.874532 0.705601
vt 0.885152 0.708446
vt 0.892926 0.716221
vt 0.895772 0.726841
vt 0.664941 0.862044
vt 0.635123 0.862044
vt 0.664941 0.767017
vt 0.634606 0.747194
vt 0.634606 0.791487
vt 0.629667 0.791487
vt 0.629667 0.747194
vt 0.897728 0.743247
vt 0.893589 0.743247
vt 0.869189 0.718848
vt 0.869189 0.704798
vt 0.873328 0.704798
vt 0.885528 0.708067
vt 0.894459 0.716998
vt 0.897728 0.729197
vt 0.920294 0.758027
vt 0.920294 0.789278
vt 0.883817 0.746068
vt 0.883817 0.791802
vt 0.878717 0.791802
vt 0.878717 0.746068
vt 0.916357 0.754169
vt 0.916357 0.817796
vt 0.760439 0.817796
vt 0.760439 0.754169
vt 0.922710 0.771425
vt 0.922710 0.801357
vt 0.745113 0.789278
vt 0.745113 0.758027
vt 0.915456 0.762922
vt 0.915456 0.793084
vt 0.912093 0.793084
vt 0.912093 0.762922
vt 0.875202 0.703828
vt 0.901559 0.730184
vt 0.906029 0.730184
vt 0.906029 0.715008
vt 0.902498 0.701830
vt 0.892851 0.692183
vt 0.879673 0.688652
vt 0.875202 0.688652
vt 0.779163 0.707335
vt 0.729449 0.707335
vt 0.729449 0.829160
vt 0.779163 0.829160
vt 0.708879 0.744424
vt 0.690534 0.762769
vt 0.687423 0.762769
vt 0.687423 0.752205
vt 0.689880 0.743033
vt 0.696595 0.736319
vt 0.705767 0.733861
vt 0.708879 0.733861
vt 0.893602 0.736192
vt 0.893602 0.783341
vt 0.675985 0.853050
vt 0.699983 0.853050
vt 0.699983 0.776571
vt 0.754929 0.801357
vt 0.754929 0.771425
vt 0.874876 0.694794
vt 0.901640 0.721558
vt 0.906179 0.721558
vt 0.906179 0.706147
vt 0.902594 0.692765
vt 0.892797 0.682969
vt 0.879416 0.679383
vt 0.874876 0.679383
vt 0.664490 0.751028
vt 0.668341 0.751028
vt 0.691043 0.728326
vt 0.691043 0.715254
vt 0.687192 0.715254
vt 0.675841 0.718295
vt 0.667532 0.726605
vt 0.664490 0.737956
vt 0.624446 0.848083
vt 0.655750 0.848083
vt 0.655750 0.748322
vt 0.900127 0.741272
vt 0.900127 0.800590
vt 0.754768 0.800590
vt 0.754768 0.741272
vt 0.848112 0.721558
vt 0.682514 0.721558
vt 0.869837 0.746068
vt 0.869837 0.791802
vt 0.912458 0.851448
vt 0.880646 0.851448
vt 0.880646 0.750068
vt 0.656503 0.849959
vt 0.625985 0.849959
vt 0.656503 0.752701
vt 0.874876 0.848083
vt 0.906179 0.848083
vt 0.874876 0.748322
vt 0.895300 0.797564
vt 0.895300 0.741117
vt 0.756976 0.741117
vt 0.756976 0.797564
vt 0.869151 0.741117
vt 0.639540 0.741117
vt 0.639540 0.797564
vt 0.869151 0.797564
vt 0.844038 0.726608
vt 0.682595 0.726608
vt 0.864417 0.791487
vt 0.864417 0.747194
vt 0.864417 0.747194
vt 0.864417 0.791487
vt 0.900649 0.849959
vt 0.870131 0.849959
vt 0.870131 0.752701
vt 0.692798 0.725743
vt 0.849803 0.725743
vt 0.863617 0.856001
vt 0.893415 0.856001
vt 0.863617 0.761039
vt 0.879124 0.803003
vt 0.879124 0.744473
vt 0.641041 0.744473
vt 0.641041 0.803003
vt 0.844790 0.743247
vt 0.693820 0.743247
vt 0.685771 0.730184
vt 0.848847 0.730184
vt 0.879189 0.783341
vt 0.879189 0.736192
vt 0.881335 0.805429
vt 0.881335 0.757056
vt 0.886882 0.817796
vt 0.886882 0.754169
vt 0.628066 0.754169
vt 0.628066 0.817796
vt 0.897728 0.858596
vt 0.869189 0.858596
vt 0.869189 0.767647
vt 0.873669 0.701349
vt 0.873669 0.716029
vt 0.848175 0.741523
vt 0.690435 0.741523
vt 0.879189 0.736192
vt 0.879189 0.783341
vt 0.875178 0.845702
vt 0.904857 0.845702
vt 0.875178 0.751118
vt 0.840729 0.762769
vt 0.727223 0.762769
vt 0.906238 0.803003
vt 0.906238 0.744473
vt 0.762810 0.744473
vt 0.762810 0.803003
vt 0.866513 0.780935
vt 0.692314 0.780935
vt 0.692314 0.823760
vt 0.866513 0.823760
vt 0.736556 0.762922
vt 0.736556 0.793084
vt 0.871854 0.855340
vt 0.896962 0.855340
vt 0.871854 0.775324
vt 0.717565 0.753857
vt 0.850388 0.753857
vt 0.736556 0.793084
vt 0.736556 0.762922
vt 0.670990 0.855340
vt 0.696098 0.855340
vt 0.696098 0.775324
vt 0.720500 0.755937
vt 0.847452 0.755218
vt 0.708879 0.849492
vt 0.687423 0.849492
vt 0.708879 0.781113
vt 0.838576 0.762126
vt 0.682452 0.762126
vt 0.682452 0.800507
vt 0.838576 0.800507
vt 0.735705 0.784950
vt 0.735705 0.753731
vt 0.859993 0.736353
vt 0.707959 0.737214
vt 0.683388 0.853514
vt 0.654648 0.853514
vt 0.683388 0.761925
vt 0.867969 0.853050
vt 0.891967 0.853050
vt 0.867969 0.775620
vt 0.735705 0.753731
vt 0.735705 0.784950
vt 0.735877 0.731351
vt 0.700578 0.731351
vt 0.700578 0.818927
vt 0.735877 0.818927
vt 0.697024 0.839486
vt 0.672180 0.839486
vt 0.697024 0.760313
vt 0.857457 0.749372
vt 0.710495 0.749372
vt 0.735103 0.789278
vt 0.735103 0.758027
vt 0.885121 0.761632
vt 0.690665 0.761632
vt 0.690665 0.809437
vt 0.885121 0.809437
vt 0.849688 0.739072
vt 0.718264 0.739072
vt 0.895772 0.839486
vt 0.870929 0.839486
vt 0.870929 0.760313
vt 0.625235 0.856001
vt 0.655033 0.856001
vt 0.655033 0.761039
vt 0.895300 0.741117
vt 0.895300 0.797564
vt 0.756976 0.797564
vt 0.756976 0.741117
vt 0.744536 0.801357
vt 0.744536 0.771425
vt 0.901261 0.756315
vt 0.676139 0.756315
vt 0.676139 0.811658
vt 0.901261 0.811658
vt 0.854208 0.751028
vt 0.713744 0.751028
vt 0.908990 0.861659
vt 0.881209 0.861659
vt 0.881209 0.773124
vt 0.838141 0.735563
vt 0.680509 0.735563
vt 0.669420 0.858596
vt 0.640881 0.858596
vt 0.669420 0.767647
vt 0.906238 0.744473
vt 0.906238 0.803003
vt 0.762810 0.803003
vt 0.762810 0.744473
vt 0.664490 0.858349
vt 0.691043 0.858349
vt 0.691043 0.773729
vt 0.869523 0.851077
vt 0.893965 0.851077
vt 0.869523 0.773184
vt 0.735103 0.758027
vt 0.735103 0.789278
vt 0.790976 0.678454
vt 0.741079 0.678454
vt 0.741079 0.800725
vt 0.790976 0.800725
vt 0.744536 0.771425
vt 0.744536 0.801357
vt 0.746726 0.702895
vt 0.805860 0.702895
vt 0.805860 0.847802
vt 0.746726 0.847802
vt 0.759682 0.680994
vt 0.824268 0.680994
vt 0.824268 0.839264
vt 0.759682 0.839264
vt 0.673988 0.851077
vt 0.698430 0.851077
vt 0.698430 0.773184
vt 0.913304 0.853514
vt 0.884565 0.853514
vt 0.884565 0.760786
vt 0.916357 0.817796
vt 0.916357 0.754169
vt 0.760439 0.754169
vt 0.760439 0.817796
vt 0.876910 0.858349
vt 0.903462 0.858349
vt 0.876910 0.773729
vt 0.795792 0.687177
vt 0.728280 0.687177
vt 0.728280 0.852616
vt 0.795792 0.852616
vt 0.903487 0.862044
vt 0.873669 0.862044
vt 0.873669 0.767017
vt 0.899163 0.741523
vt 0.903487 0.741523
vt 0.806358 0.860664
vt 0.743437 0.860664
vt 0.743437 0.706476
vt 0.806358 0.706476
vt 0.880530 0.849492
vt 0.859073 0.849492
vt 0.859073 0.781113
vt 0.881335 0.757056
vt 0.881335 0.805429
vt 0.875202 0.854782
vt 0.906029 0.854782
vt 0.875202 0.756541
vt 0.872648 0.800590
vt 0.872648 0.741272
vt 0.631361 0.741272
vt 0.631361 0.800590
vt 0.869837 0.791802
vt 0.869837 0.746068
vt 0.671563 0.726514
vt 0.661607 0.736469
vt 0.659336 0.734940
vt 0.669132 0.725144
vt 0.861494 0.725144
vt 0.871290 0.734940
vt 0.877002 0.736469
vt 0.867047 0.726514
vt 0.669549 0.730104
vt 0.659999 0.739654
vt 0.658446 0.748301
vt 0.667771 0.738976
vt 0.850879 0.738976
vt 0.860204 0.748301
vt 0.866635 0.739654
vt 0.857085 0.730104
vt 0.670823 0.738430
vt 0.680111 0.729142
vt 0.681620 0.746516
vt 0.672689 0.755447
vt 0.662946 0.743363
vt 0.672593 0.733716
vt 0.677688 0.744939
vt 0.668356 0.754270
vt 0.865921 0.755447
vt 0.856990 0.746516
vt 0.862491 0.729142
vt 0.871779 0.738430
vt 0.856616 0.771941
vt 0.849901 0.765226
vt 0.861121 0.756733
vt 0.868978 0.764590
vt 0.718051 0.765226
vt 0.711337 0.771941
vt 0.698974 0.764590
vt 0.706831 0.756733
vt 0.702732 0.766297
vt 0.710242 0.758744
vt 0.695673 0.740576
vt 0.686680 0.749620
vt 0.881273 0.748519
vt 0.872279 0.739576
vt 0.857711 0.757909
vt 0.865220 0.765377
vt 0.707644 0.741918
vt 0.699869 0.749693
vt 0.701229 0.762735
vt 0.708878 0.755087
vt 0.698619 0.752555
vt 0.689925 0.761248
vt 0.694084 0.762378
vt 0.702393 0.754069
vt 0.868083 0.749693
vt 0.860308 0.741918
vt 0.859074 0.755087
vt 0.866723 0.762735
vt 0.878027 0.761248
vt 0.869333 0.752555
vt 0.865559 0.754069
vt 0.873868 0.762378
vt 0.862025 0.733716
vt 0.871672 0.743363
vt 0.870253 0.754270
vt 0.860922 0.744939
vt 0.695353 0.746068
vt 0.695353 0.791802
vt 0.684348 0.746068
vt 0.684348 0.791802
vt 0.612419 0.791802
vt 0.612419 0.746068
vt 0.696785 0.757056
vt 0.696785 0.805429
vt 0.685145 0.757056
vt 0.685145 0.805429
vt 0.609066 0.805429
vt 0.609066 0.757056
vt 0.699305 0.736192
vt 0.699305 0.783341
vt 0.687960 0.736192
vt 0.687960 0.783341
vt 0.613805 0.783341
vt 0.613805 0.736192
vt 0.695429 0.747194
vt 0.695429 0.791487
vt 0.684771 0.747194
vt 0.684771 0.791487
vt 0.615107 0.791487
vt 0.615107 0.747194
vt 0.925371 0.762922
vt 0.925371 0.793084
vt 0.614224 0.793084
vt 0.614224 0.762922
vt 0.621482 0.762922
vt 0.621482 0.793084
vt 0.932549 0.771425
vt 0.932549 0.801357
vt 0.623140 0.801357
vt 0.623140 0.771425
vt 0.630343 0.771425
vt 0.630343 0.801357
vt 0.930566 0.758027
vt 0.930566 0.789278
vt 0.608354 0.789278
vt 0.608354 0.758027
vt 0.615874 0.758027
vt 0.615874 0.789278
vt 0.930928 0.753731
vt 0.930928 0.784950
vt 0.609086 0.784950
vt 0.609086 0.753731
vt 0.616598 0.753731
vt 0.616598 0.784950
vt 0.621482 0.762922
vt 0.621482 0.793084
vt 0.614224 0.762922
vt 0.614224 0.793084
vt 0.736466 0.793084
vt 0.736466 0.762922
vt 0.898851 0.746068
vt 0.898851 0.791802
vt 0.909856 0.746068
vt 0.909856 0.791802
vt 0.695353 0.791802
vt 0.695353 0.746068
vt 0.630343 0.771425
vt 0.630343 0.801357
vt 0.623140 0.771425
vt 0.623140 0.801357
vt 0.745090 0.801357
vt 0.745090 0.771425
vt 0.912023 0.757056
vt 0.912023 0.805429
vt 0.923663 0.757056
vt 0.923663 0.805429
vt 0.696785 0.805429
vt 0.696785 0.757056
vt 0.615874 0.758027
vt 0.615874 0.789278
vt 0.608354 0.758027
vt 0.608354 0.789278
vt 0.734841 0.789278
vt 0.734841 0.758027
vt 0.909100 0.736192
vt 0.909100 0.783341
vt 0.920446 0.736192
vt 0.920446 0.783341
vt 0.699305 0.783341
vt 0.699305 0.736192
vt 0.616598 0.753731
vt 0.616598 0.784950
vt 0.609086 0.753731
vt 0.609086 0.784950
vt 0.735403 0.784950
vt 0.735403 0.753731
vt 0.892517 0.747194
vt 0.892517 0.791487
vt 0.903176 0.747194
vt 0.903176 0.791487
vt 0.695429 0.791487
vt 0.695429 0.747194
vt 0.611862 0.741272
vt 0.611862 0.800590
vt 0.720996 0.800590
vt 0.720996 0.741272
vt 0.735270 0.741272
vt 0.735270 0.800590
vt 0.892146 0.800590
vt 0.892146 0.741272
vt 0.906420 0.800590
vt 0.906420 0.741272
vt 0.735270 0.741272
vt 0.735270 0.800590
vt 0.620985 0.741117
vt 0.620985 0.797564
vt 0.724838 0.797564
vt 0.724838 0.741117
vt 0.738421 0.741117
vt 0.738421 0.797564
vt 0.887706 0.797564
vt 0.887706 0.741117
vt 0.901289 0.797564
vt 0.901289 0.741117
vt 0.738421 0.741117
vt 0.738421 0.797564
vt 0.621802 0.744473
vt 0.621802 0.803003
vt 0.729487 0.803003
vt 0.729487 0.744473
vt 0.743571 0.744473
vt 0.743571 0.803003
vt 0.607151 0.754169
vt 0.607151 0.817796
vt 0.724213 0.817796
vt 0.724213 0.754169
vt 0.739524 0.754169
vt 0.739524 0.817796
vt 0.898364 0.803003
vt 0.898364 0.744473
vt 0.912448 0.803003
vt 0.912448 0.744473
vt 0.743571 0.744473
vt 0.743571 0.803003
vt 0.880590 0.823760
vt 0.880590 0.780935
vt 0.682032 0.780803
vt 0.682032 0.823940
vt 0.692412 0.823940
vt 0.692412 0.780803
vt 0.729449 0.845502
vt 0.779163 0.845502
vt 0.880989 0.781146
vt 0.880989 0.823579
vt 0.894937 0.823579
vt 0.894937 0.781146
vt 0.905463 0.781146
vt 0.905463 0.823579
vt 0.895253 0.823579
vt 0.895253 0.781146
vt 0.828687 0.723676
vt 0.783681 0.723676
vt 0.783681 0.708882
vt 0.828687 0.708882
vt 0.669836 0.762126
vt 0.669836 0.800507
vt 0.660622 0.800507
vt 0.660622 0.762126
vt 0.669910 0.762126
vt 0.669910 0.800507
vt 0.743437 0.685763
vt 0.806358 0.685763
vt 0.851192 0.800507
vt 0.851192 0.762126
vt 0.860428 0.800507
vt 0.860428 0.762126
vt 0.700578 0.830513
vt 0.735877 0.830513
vt 0.674951 0.761632
vt 0.674951 0.809437
vt 0.663513 0.809437
vt 0.663513 0.761632
vt 0.675016 0.761632
vt 0.675016 0.809437
vt 0.824268 0.860494
vt 0.759682 0.860494
vt 0.657947 0.756315
vt 0.657947 0.811658
vt 0.644966 0.811658
vt 0.644966 0.756315
vt 0.658284 0.756315
vt 0.658284 0.811658
vt 0.805860 0.867240
vt 0.746726 0.867240
vt 0.900835 0.809437
vt 0.900835 0.761632
vt 0.663513 0.761632
vt 0.663513 0.809437
vt 0.675016 0.809437
vt 0.675016 0.761632
vt 0.741079 0.817127
vt 0.790976 0.817127
vt 0.919453 0.811658
vt 0.919453 0.756315
vt 0.644966 0.756315
vt 0.644966 0.811658
vt 0.658284 0.811658
vt 0.658284 0.756315
vt 0.728280 0.874808
vt 0.795792 0.874808
vt 0.907797 0.817796
vt 0.907797 0.754169
vt 0.923108 0.817796
vt 0.923108 0.754169
vt 0.739524 0.754169
vt 0.739524 0.817796
vt 0.877993 0.701349
vt 0.890740 0.704765
vt 0.900071 0.714096
vt 0.903487 0.726843
vt 0.302943 0.208905
vt 0.313756 0.208905
vt 0.299188 0.194988
vt 0.310449 0.194988
vt 0.298566 0.181603
vt 0.309934 0.181603
vt 0.296844 0.177749
vt 0.308321 0.177749
vn -0.0035 1.0000 0.0000
vn 0.0035 -1.0000 -0.0000
vn -0.0000 -0.0000 1.0000
vn 1.0000 0.0035 0.0000
vn -0.0036 1.0000 0.0000
vn -1.0000 -0.0035 0.0000
vn -0.0000 0.0000 -1.0000
vn 0.0034 -1.0000 0.0000
vn 1.0000 0.0034 0.0000
vn -1.0000 -0.0034 0.0000
vn -0.0034 1.0000 -0.0000
vn -0.0034 1.0000 -0.0001
vn -0.0034 1.0000 0.0001
vn -0.0035 1.0000 0.0001
vn 1.0000 0.0034 -0.0035
vn -0.4006 -0.0014 0.9163
vn -0.8527 -0.0029 0.5224
vn -0.9868 -0.0034 0.1620
vn -0.4009 -0.0014 0.9161
vn -0.8527 -0.0030 0.5224
vn -0.9868 -0.0034 0.1621
vn -0.4005 -0.0014 0.9163
vn -0.9868 -0.0034 -0.1621
vn -0.8527 -0.0030 -0.5224
vn -0.4006 -0.0014 -0.9163
vn -0.9868 -0.0034 -0.1620
vn -0.4005 -0.0014 -0.9163
vn -0.8527 -0.0029 -0.5224
vn -0.8527 -0.0030 0.5223
vn 0.9868 0.0034 -0.1620
vn 0.8526 0.0029 -0.5225
vn 0.4007 0.0014 -0.9162
vn 0.9868 0.0034 0.1620
vn 0.8526 0.0029 0.5225
vn 0.4007 0.0014 0.9162
vn 0.9868 0.0034 -0.1621
vn 0.8526 0.0030 -0.5225
vn 0.8526 0.0030 0.5225
vn 0.4008 0.0014 0.9162
vn 0.4008 0.0014 -0.9162
vn 0.9862 0.0034 -0.1654
vn 0.8513 0.0030 -0.5246
vn 0.4003 0.0014 -0.9164
vn 0.9873 0.0034 0.1587
vn 0.8540 0.0030 0.5203
vn 0.4013 0.0014 0.9160
vn 0.9868 0.0034 0.1621
vn 0.8527 0.0030 0.5224
usemtl Material.001
s 1
f 1/1/1 2/2/1 3/3/1 4/4/1
f 5/5/2 6/6/2 7/7/2 8/8/2
f 9/9/1 10/10/1 11/11/1 12/12/1
f 13/13/1 14/14/1 10/10/1 9/9/1
f 15/15/3 16/16/3 17/17/3 18/18/3
f 19/19/4 20/20/4 21/21/4 22/22/4
f 23/23/3 24/24/3 25/25/3 26/26/3
f 27/27/2 24/28/2 28/29/2 29/30/2
f 14/31/1 13/32/1 30/33/1 31/34/1
f 32/35/1 33/36/1 34/37/5 35/38/5
f 36/39/1 37/40/1 38/41/1 39/42/1
f 40/43/1 41/44/1 42/45/1 43/46/1
f 33/47/1 32/48/1 41/44/1 40/43/1
f 24/49/6 27/50/6 44/51/6 25/52/6
f 45/53/6 46/54/6 47/55/6 48/56/6
f 43/46/1 42/45/1 37/40/1 36/39/1
f 49/57/7 50/58/7 51/59/7 52/60/7
f 50/61/4 53/62/4 54/63/4 51/64/4
f 12/12/1 11/11/1 2/2/1 1/1/1
f 52/65/2 18/66/2 17/67/2 55/68/2
f 51/69/2 54/70/2 18/66/2 52/65/2
f 22/71/2 21/72/2 56/73/2 57/74/2
f 57/74/2 56/73/2 26/75/2 58/76/2
f 58/76/2 26/75/2 25/77/2 44/78/2
f 55/68/2 17/67/2 59/79/2 60/80/2
f 16/16/3 6/81/3 59/82/3 17/17/3
f 6/83/6 5/84/6 60/85/6 59/86/6
f 20/87/3 61/88/3 56/89/3 21/90/3
f 62/91/7 63/92/7 57/93/7 58/94/7
f 5/95/7 64/96/7 55/97/7 60/98/7
f 63/92/7 19/99/7 22/100/7 57/93/7
f 27/101/7 62/91/7 58/94/7 44/102/7
f 53/103/3 15/15/3 18/18/3 54/104/3
f 11/105/7 65/106/7 66/107/7 2/108/7
f 39/109/3 67/110/3 68/111/3 36/112/3
f 53/113/8 50/114/2 69/115/8 70/116/8
f 3/117/6 71/118/6 72/119/6 4/120/6
f 43/121/3 73/122/3 74/123/3 40/124/3
f 14/125/7 75/126/7 76/127/7 10/128/7
f 36/129/3 68/130/3 73/122/3 43/121/3
f 10/128/7 76/127/7 65/106/7 11/105/7
f 38/131/6 77/132/6 67/133/6 39/134/6
f 2/135/7 66/136/7 71/137/7 3/138/7
f 40/124/3 74/123/3 78/139/3 33/140/3
f 34/141/4 79/142/4 80/143/4 35/144/4
f 30/145/9 81/146/4 82/147/4 31/148/9
f 20/149/2 19/150/8 83/151/8 84/152/8
f 75/153/7 14/154/7 31/155/7 82/156/7
f 33/157/3 78/158/3 79/159/3 34/160/3
f 85/161/3 86/162/3 87/163/3 88/164/3
f 86/162/3 89/165/3 90/166/3 87/163/3
f 89/165/3 91/167/3 92/168/3 90/166/3
f 93/169/7 94/170/7 95/171/7 96/172/7
f 94/170/7 97/173/7 98/174/7 95/171/7
f 97/173/7 99/175/7 100/176/7 98/174/7
f 101/177/7 102/178/7 103/179/7 104/180/7
f 102/178/7 105/181/7 106/182/7 103/179/7
f 105/181/7 107/183/7 108/184/7 106/182/7
f 109/185/6 110/186/6 111/187/10 112/188/6
f 110/186/6 113/189/6 114/190/6 111/187/10
f 113/189/6 115/191/6 116/192/6 114/190/6
f 117/193/7 118/194/7 119/195/7 120/196/7
f 118/194/7 121/197/7 122/198/7 119/195/7
f 121/197/7 123/199/7 124/200/7 122/198/7
f 125/201/3 126/202/3 127/203/3 128/204/3
f 126/202/3 129/205/3 130/206/3 127/203/3
f 129/205/3 131/207/3 132/208/3 130/206/3
f 99/209/7 97/210/7 118/194/7 117/193/7
f 97/210/7 94/211/7 121/197/7 118/194/7
f 94/211/7 93/212/7 123/199/7 121/197/7
f 128/204/3 127/203/3 86/162/3 85/161/3
f 127/203/3 130/206/3 89/165/3 86/162/3
f 130/206/3 132/208/3 91/167/3 89/165/3
f 104/213/6 103/214/6 133/215/6 134/216/6
f 103/214/6 106/217/6 135/218/6 133/215/6
f 106/217/6 108/219/6 136/220/6 135/218/6
f 112/221/3 111/222/3 126/223/3 125/224/3
f 111/222/3 114/225/3 129/226/3 126/223/3
f 114/225/3 116/227/3 131/228/3 129/226/3
f 120/196/7 119/195/7 102/229/7 101/230/7
f 119/195/7 122/198/7 105/231/7 102/229/7
f 122/198/7 124/200/7 107/232/7 105/231/7
f 88/233/3 87/234/3 137/235/3 138/236/3
f 87/234/3 90/237/3 139/238/3 137/235/3
f 90/237/3 92/239/3 140/240/3 139/238/3
f 141/241/4 142/242/4 98/243/4 100/244/4
f 142/242/4 143/245/4 95/246/4 98/243/4
f 143/245/4 144/247/4 96/248/4 95/246/4
f 138/249/4 137/250/4 145/251/4 146/252/4
f 137/250/4 139/253/4 147/254/4 145/251/4
f 139/253/4 140/255/4 148/256/4 147/254/4
f 91/167/3 149/257/3 150/258/3 92/168/3
f 149/257/3 151/259/3 152/260/3 150/258/3
f 151/259/3 153/261/3 154/262/3 152/260/3
f 155/263/7 156/264/7 157/265/7 158/266/7
f 156/264/7 159/267/7 160/268/7 157/265/7
f 159/267/7 93/169/7 96/172/7 160/268/7
f 107/269/7 161/270/7 162/271/7 108/272/7
f 161/270/7 163/273/7 164/274/7 162/271/7
f 163/273/7 165/275/7 166/276/7 164/274/7
f 115/277/6 167/278/6 168/279/6 116/280/6
f 167/278/6 169/281/6 170/282/6 168/279/6
f 169/281/6 171/283/6 172/284/6 170/282/6
f 123/199/7 173/285/7 174/286/7 124/200/7
f 173/285/7 175/287/7 176/288/7 174/286/7
f 175/287/7 177/289/7 178/290/7 176/288/7
f 131/207/3 179/291/3 180/292/3 132/208/3
f 179/291/3 181/293/3 182/294/3 180/292/3
f 181/293/3 183/295/3 184/296/3 182/294/3
f 93/212/7 159/297/7 173/285/7 123/199/7
f 159/297/7 156/298/7 175/287/7 173/285/7
f 156/298/7 155/299/7 177/289/7 175/287/7
f 132/208/3 180/292/3 149/257/3 91/167/3
f 180/292/3 182/294/3 151/259/3 149/257/3
f 182/294/3 184/296/3 153/261/3 151/259/3
f 108/300/6 162/301/6 185/302/6 136/303/6
f 162/301/6 164/304/6 186/305/6 185/302/6
f 164/304/6 166/306/6 187/307/6 186/305/6
f 116/308/3 168/309/3 179/310/3 131/311/3
f 168/309/3 170/312/3 181/313/3 179/310/3
f 170/312/3 172/314/3 183/315/3 181/313/3
f 124/200/7 174/286/7 161/316/7 107/232/7
f 174/286/7 176/288/7 163/317/7 161/316/7
f 176/288/7 178/290/7 165/318/7 163/317/7
f 92/239/3 150/319/3 188/320/3 140/240/3
f 150/319/3 152/321/3 189/322/3 188/320/3
f 152/321/3 154/323/3 190/324/3 189/322/3
f 144/247/4 191/325/4 160/326/4 96/248/4
f 191/325/4 192/327/4 157/328/4 160/326/4
f 192/327/4 193/329/4 158/330/4 157/328/4
f 140/255/4 188/331/4 194/332/4 148/256/4
f 188/331/4 189/333/4 195/334/4 194/332/4
f 189/333/4 190/335/4 196/336/4 195/334/4
f 19/337/7 197/338/7 198/339/7 83/340/7
f 197/338/7 199/341/7 200/342/7 198/339/7
f 199/341/7 155/263/7 158/266/7 200/342/7
f 190/335/4 201/343/4 202/344/4 196/336/4
f 201/343/4 203/345/4 204/346/4 202/344/4
f 70/347/4 69/348/4 204/346/4 203/345/4
f 193/329/4 205/349/4 200/350/4 158/330/4
f 205/349/4 206/351/4 198/352/4 200/350/4
f 84/353/4 83/354/4 198/352/4 206/351/4
f 154/323/3 207/355/3 201/356/3 190/324/3
f 207/355/3 208/357/3 203/358/3 201/356/3
f 53/359/3 70/360/3 203/358/3 208/357/3
f 178/290/7 209/361/7 210/362/7 165/318/7
f 209/361/7 211/363/7 212/364/7 210/362/7
f 62/91/7 27/101/7 212/364/7 211/363/7
f 172/365/3 213/366/3 214/367/3 183/368/3
f 213/366/3 215/369/3 216/370/3 214/367/3
f 215/369/3 7/371/3 6/372/3 216/370/3
f 166/373/6 217/374/6 218/375/6 187/376/6
f 217/374/6 219/377/6 220/378/6 218/375/6
f 29/379/6 28/380/6 220/378/6 219/377/6
f 184/296/3 221/381/3 222/382/3 153/261/3
f 221/381/3 223/383/3 224/384/3 222/382/3
f 16/16/3 15/15/3 224/384/3 223/383/3
f 155/299/7 199/385/7 225/386/7 177/289/7
f 199/385/7 197/387/7 226/388/7 225/386/7
f 19/99/7 63/92/7 226/388/7 197/387/7
f 183/295/3 214/389/3 221/381/3 184/296/3
f 214/389/3 216/390/3 223/383/3 221/381/3
f 6/81/3 16/16/3 223/383/3 216/390/3
f 177/289/7 225/386/7 209/361/7 178/290/7
f 225/386/7 226/388/7 211/363/7 209/361/7
f 63/92/7 62/91/7 211/363/7 226/388/7
f 171/391/6 227/392/6 213/393/6 172/394/6
f 227/392/6 228/395/6 215/396/6 213/393/6
f 8/397/6 7/398/6 215/396/6 228/395/6
f 165/399/7 210/400/7 217/401/7 166/402/7
f 210/400/7 212/403/7 219/404/7 217/401/7
f 27/405/7 29/406/7 219/404/7 212/403/7
f 153/261/3 222/382/3 207/407/3 154/262/3
f 222/382/3 224/384/3 208/408/3 207/407/3
f 15/15/3 53/103/3 208/408/3 224/384/3
f 74/409/3 229/410/3 230/411/3 78/412/3
f 229/410/3 231/413/3 232/414/3 230/411/3
f 231/413/3 85/161/3 88/164/3 232/414/3
f 66/415/7 233/416/7 234/417/7 71/418/7
f 233/416/7 235/419/7 236/420/7 234/417/7
f 235/419/7 101/421/7 104/422/7 236/420/7
f 77/423/6 237/424/6 238/425/6 67/426/6
f 237/424/6 239/427/6 240/428/6 238/425/6
f 239/427/6 109/429/6 112/430/6 240/428/6
f 76/431/7 241/432/7 242/433/7 65/434/7
f 241/432/7 243/435/7 244/436/7 242/433/7
f 243/435/7 117/193/7 120/196/7 244/436/7
f 68/437/3 245/438/3 246/439/3 73/440/3
f 245/438/3 247/441/3 248/442/3 246/439/3
f 247/441/3 125/201/3 128/204/3 248/442/3
f 75/443/7 249/444/7 241/432/7 76/431/7
f 249/444/7 250/445/7 243/435/7 241/432/7
f 250/445/7 99/209/7 117/193/7 243/435/7
f 73/440/3 246/439/3 229/410/3 74/409/3
f 246/439/3 248/442/3 231/413/3 229/410/3
f 248/442/3 128/204/3 85/161/3 231/413/3
f 71/446/6 234/447/6 251/448/6 72/449/6
f 234/447/6 236/450/6 252/451/6 251/448/6
f 236/450/6 104/452/6 134/453/6 252/451/6
f 67/454/3 238/455/3 245/456/3 68/457/3
f 238/455/3 240/458/3 247/459/3 245/456/3
f 240/458/3 112/460/3 125/461/3 247/459/3
f 65/434/7 242/433/7 233/462/7 66/463/7
f 242/433/7 244/436/7 235/464/7 233/462/7
f 244/436/7 120/196/7 101/230/7 235/464/7
f 78/158/3 230/465/3 253/466/3 79/159/3
f 230/465/3 232/467/3 254/468/3 253/466/3
f 232/467/3 88/233/3 138/236/3 254/468/3
f 81/146/4 255/469/4 256/470/4 82/147/4
f 255/469/4 257/471/4 258/472/4 256/470/4
f 257/471/4 141/241/4 100/244/4 258/472/4
f 79/142/4 253/473/4 259/474/4 80/143/4
f 253/473/4 254/475/4 260/476/4 259/474/4
f 254/475/4 138/249/4 146/252/4 260/476/4
f 99/175/7 250/477/7 258/478/7 100/176/7
f 250/477/7 249/479/7 256/480/7 258/478/7
f 249/479/7 75/153/7 82/156/7 256/480/7
f 261/481/4 262/482/4 263/483/4 264/484/4
f 255/469/4 265/485/4 266/486/4 257/471/4
f 259/474/4 261/481/4 267/487/4 80/143/4
f 267/487/4 261/481/4 264/484/4 268/488/4
f 81/146/4 269/489/4 265/485/4 255/469/4
f 270/490/6 109/429/6 239/427/6 271/491/6 272/492/6 273/493/6
f 274/494/6 275/495/6 276/496/6 277/497/6 278/498/6 279/499/6
f 134/453/6 275/495/6 274/494/6 280/500/6 281/501/6 252/451/6
f 282/502/6 283/503/6 284/504/6 72/449/6 251/448/6 285/505/6
f 284/504/6 283/503/6 286/506/6 287/507/6 288/508/6 289/509/6
f 290/510/6 291/511/6 292/512/6 237/424/6 77/423/6 293/513/6
f 251/448/6 252/451/6 281/501/6 285/505/6
f 272/514/2 271/515/2 294/516/2 295/517/2 296/518/2
f 297/519/11 298/520/1 299/521/1 300/522/11 301/523/12 302/524/12 303/525/12 304/526/12
f 288/508/6 277/497/6 305/527/6 306/528/6
f 271/491/6 239/427/6 237/424/6 292/512/6
f 307/529/6 308/530/6 309/531/6 187/376/6 218/375/6 310/532/6
f 311/533/6 312/534/6 313/535/6 314/536/6 315/537/6 316/538/6
f 317/539/6 8/397/6 228/395/6 318/540/6 319/541/6 320/542/6
f 12/12/1 321/543/1 322/544/1 9/9/1
f 309/531/6 308/530/6 323/545/6 324/546/6 325/547/6 326/548/6
f 327/549/6 328/550/6 329/551/6 227/392/6 171/391/6 330/552/6
f 218/375/6 220/378/6 331/553/6 310/532/6
f 332/554/1 333/555/1 334/556/1 335/557/1 336/558/1 337/559/1 338/560/1 339/561/1
f 340/562/1 341/563/1 342/564/1 343/565/1 344/566/1 345/567/1 346/568/1 347/569/1
f 325/547/6 313/535/6 348/570/6 349/571/6
f 318/540/6 228/395/6 227/392/6 329/551/6
f 350/572/4 84/353/4 206/351/4 351/573/4
f 352/574/4 353/575/4 354/576/4 355/577/4
f 69/348/4 352/574/4 355/577/4 204/346/4
f 204/346/4 355/577/4 356/578/4 202/344/4
f 356/578/4 355/577/4 354/576/4 357/579/4
f 351/573/4 206/351/4 205/349/4 358/580/4
f 202/344/4 356/578/4 359/581/4 196/336/4
f 359/581/4 356/578/4 357/579/4 360/582/4
f 358/580/4 205/349/4 193/329/4 361/583/4
f 196/336/4 359/581/4 362/584/4 195/334/4
f 362/584/4 359/581/4 360/582/4 363/585/4
f 361/583/4 193/329/4 192/327/4 364/586/4
f 195/334/4 362/584/4 365/587/4 194/332/4
f 365/587/4 362/584/4 363/585/4 366/588/4
f 364/586/4 192/327/4 191/325/4 367/589/4
f 194/332/4 365/587/4 368/590/4 148/256/4
f 368/590/4 365/587/4 366/588/4 369/591/4
f 367/589/4 191/325/4 144/247/4 370/592/4
f 330/593/6 171/283/6 169/281/6 371/594/6 372/595/6 373/596/6
f 374/597/6 309/598/6 326/599/6 375/600/6 376/601/6 377/602/6
f 187/307/6 309/598/6 374/597/6 378/603/6 379/604/6 186/305/6
f 380/605/6 381/606/6 382/607/6 136/303/6 185/302/6 383/608/6
f 382/607/6 381/606/6 384/609/6 385/610/6 386/611/6 387/612/6
f 388/613/6 389/614/6 390/615/6 167/278/6 115/277/6 391/616/6
f 185/302/6 186/305/6 379/604/6 383/608/6
f 286/617/7 279/618/7 392/619/7 393/620/7
f 394/621/3 340/622/3 347/623/3 395/624/3
f 386/611/6 375/600/6 396/625/6 397/626/6
f 371/594/6 169/281/6 167/278/6 390/615/6
f 370/592/4 144/247/4 143/245/4 398/627/4
f 399/628/4 368/590/4 369/591/4 400/629/4
f 148/256/4 368/590/4 399/628/4 147/254/4
f 147/254/4 399/628/4 401/630/4 145/251/4
f 401/630/4 399/628/4 400/629/4 402/631/4
f 398/627/4 143/245/4 142/242/4 403/632/4
f 145/251/4 401/630/4 404/633/4 146/252/4
f 404/633/4 401/630/4 402/631/4 405/634/4
f 403/632/4 142/242/4 141/241/4 406/635/4
f 391/636/6 115/191/6 113/189/6 407/637/6 408/638/6 409/639/6
f 410/640/6 382/641/6 387/642/6 411/643/6 412/644/6 413/645/6
f 136/220/6 382/641/6 410/640/6 414/646/6 415/647/6 135/218/6
f 416/648/6 417/649/6 275/650/6 134/216/6 133/215/6 418/651/6
f 275/650/6 417/649/6 419/652/6 420/653/6 421/654/6 276/655/6
f 422/656/6 423/657/6 424/658/6 110/186/6 109/185/6 270/659/6
f 133/215/6 135/218/6 415/647/6 418/651/6
f 425/660/1 426/661/1 427/662/1 428/663/1 429/664/1 430/665/1 431/666/1 432/667/1
f 433/668/2 434/669/2 435/670/2 436/671/2 437/672/2 438/673/2 439/674/2 440/675/2
f 421/654/6 411/643/6 441/676/6 442/677/6
f 407/637/6 113/189/6 110/186/6 424/658/6
f 443/678/2 20/149/2 84/152/8 350/679/8
f 444/680/2 445/681/2 353/682/8 352/683/8
f 80/143/4 267/487/4 446/684/4 35/144/4
f 28/380/6 311/533/6 316/538/6 447/685/6 331/553/6 220/378/6
f 446/684/4 267/487/4 268/488/4 448/686/4
f 269/489/4 81/146/4 30/145/9 449/687/4
f 450/688/1 32/35/1 35/38/5 446/689/5
f 451/690/1 452/691/1 448/692/1 449/693/1
f 13/32/1 451/690/1 449/693/1 30/33/1
f 72/119/6 284/694/6 453/695/6 4/120/6
f 453/695/6 284/694/6 289/696/6 454/697/6
f 293/698/6 77/132/6 38/131/6 455/699/6
f 456/700/6 23/701/6 26/702/6 457/703/6
f 458/704/6 459/705/6 460/706/6 461/707/6
f 64/708/6 458/704/6 461/707/6 55/709/6
f 55/710/2 461/711/2 462/712/2 52/713/2
f 463/714/2 464/715/2 460/716/2 457/717/2
f 56/718/2 463/714/2 457/717/2 26/719/2
f 1/1/1 465/720/1 321/543/1 12/12/1
f 466/721/1 467/722/1 468/723/1 469/724/1
f 466/721/1 469/724/1 37/40/1 42/45/1
f 5/725/2 470/726/2 458/727/2 64/728/2
f 456/729/2 459/730/2 471/731/2 472/732/2
f 456/729/2 472/732/2 24/733/2 23/734/2
f 472/735/2 311/736/2 28/29/2 24/28/2
f 472/735/2 471/737/2 312/738/2 311/736/2
f 317/739/2 470/740/2 5/5/2 8/8/2
f 443/741/2 473/742/2 61/743/2 20/744/2
f 260/476/4 262/482/4 261/481/4 259/474/4
f 443/741/2 445/745/2 474/746/2 473/742/2
f 49/747/2 475/748/2 444/749/2 50/750/2
f 476/751/2 477/752/2 478/753/2 479/754/2 480/755/2 481/756/2 482/757/2 483/758/2
f 4/4/1 453/759/1 465/720/1 1/1/1
f 339/760/6 484/761/6 46/54/6 45/53/6
f 485/762/1 486/763/1 487/764/1 45/765/1 48/766/1 488/767/1 489/768/1 490/769/1
f 469/724/1 468/723/1 454/770/1 455/771/1
f 469/724/1 455/771/1 38/41/1 37/40/1
f 491/772/1 466/721/1 42/45/1 41/44/1
f 492/773/10 493/774/10 494/775/10 495/776/10
f 496/777/2 497/778/2 498/779/2 499/780/2 500/781/2 501/782/2 502/783/2 503/784/2
f 504/785/3 505/786/3 506/787/3 507/788/3
f 491/772/1 508/789/1 467/722/1 466/721/1
f 509/790/2 510/791/2 511/792/2 512/793/2 513/794/2 514/795/2 515/796/2 516/797/2
f 9/9/1 322/544/1 451/798/1 13/13/1
f 32/48/1 450/799/1 491/772/1 41/44/1
f 283/503/6 274/494/6 279/499/6 286/506/6
f 308/530/6 316/538/6 315/537/6 323/545/6
f 508/789/1 491/772/1 450/799/1 452/800/1
f 146/252/4 404/633/4 262/482/4 260/476/4
f 52/801/4 462/802/4 475/803/4 49/804/4
f 381/606/6 374/597/6 377/602/6 384/609/6
f 417/649/6 410/640/6 413/645/6 419/652/6
f 464/805/4 463/806/4 473/807/4 474/808/4
f 273/493/6 272/492/6 291/511/6 290/510/6
f 61/809/4 473/807/4 463/806/4 56/810/4
f 262/482/4 404/633/4 405/634/4 263/483/4
f 320/542/6 319/541/6 328/550/6 327/549/6
f 373/596/6 372/595/6 389/614/6 388/613/6
f 409/639/6 408/638/6 423/657/6 422/656/6
f 406/635/4 141/241/4 257/471/4 266/486/4
f 517/811/7 518/812/7 519/813/7 520/814/7
f 521/815/2 522/816/2 523/817/2 524/818/2 525/819/2 526/820/2 527/821/2 528/822/2
f 529/823/3 297/824/3 304/825/3 530/826/3
f 531/827/7 532/828/7 533/829/7 534/830/7
f 435/831/3 535/832/3 536/833/3 436/834/3
f 537/835/7 538/836/7 539/837/7 540/838/7
f 511/839/3 541/840/3 542/841/3 512/842/3
f 543/843/7 476/844/7 483/845/7 544/846/7
f 545/847/3 546/848/3 547/849/3 548/850/3
f 549/851/7 496/852/7 503/853/7 550/854/7
f 334/855/7 551/856/7 552/857/7 335/858/7
f 553/859/7 554/860/7 555/861/7 556/862/7
f 557/863/2 295/517/2 294/516/2 558/864/2 559/865/2 560/866/2 561/867/2 562/868/2
f 563/869/2 564/870/2 394/871/2 395/872/2 565/873/2 566/874/2 567/875/2 568/876/2
f 569/877/2 570/878/2 571/879/2 572/880/8 573/881/8 574/882/8 47/883/8 46/884/2
f 575/885/3 576/886/3 577/887/3 578/888/3
f 579/889/2 580/890/2 545/891/2 548/892/2 581/893/2 582/894/2 494/895/2 493/896/2
f 554/897/2 583/898/2 584/899/2 585/900/2 586/901/2 587/902/2 588/903/2 555/904/2
f 315/905/2 314/906/2 435/670/2 434/669/2 589/907/2
f 590/908/1 591/909/1 537/910/1 540/911/1 592/912/1 593/913/1 594/914/1 595/915/1
f 596/916/10 597/917/10 568/918/10 343/919/10
f 598/920/6 599/921/6 600/922/6 440/923/6
f 601/924/10 480/925/10 479/926/10 602/927/10
f 532/928/2 603/929/2 604/930/2 600/931/2 605/932/2 606/933/2 607/934/2 533/935/2
f 608/936/6 586/937/6 585/938/6 609/939/6
f 610/940/7 521/941/7 528/942/7 611/943/7
f 541/944/1 612/945/1 613/946/1 614/947/1 615/948/1 616/949/1 617/950/1 542/951/1
f 294/952/3 425/953/3 432/954/3 558/955/3
f 571/956/3 485/957/3 490/958/3 572/959/3
f 576/960/1 618/961/1 619/962/1 620/963/1 621/964/1 622/965/1 623/966/1 577/967/1
f 329/968/1 328/969/1 624/970/1 341/563/1 340/562/1
f 300/971/10 625/972/10 626/973/10 301/974/10
f 627/975/2 628/976/2 575/977/2 578/978/2 629/979/2 630/980/2 631/981/2 632/982/2
f 428/983/6 562/984/6 561/985/6 429/986/6
f 633/987/10 634/988/10 597/917/10 596/916/10
f 635/989/1 636/990/1 610/991/11 611/992/13 637/993/13 638/994/13 639/995/13 640/996/11
f 641/997/1 642/998/1 543/999/1 544/1000/1 643/1001/1 644/1002/1 601/1003/1 602/1004/1
f 492/773/10 602/927/10 479/926/10 493/774/10
f 645/1005/1 646/1006/1 531/1007/1 534/1008/1 647/1009/1 648/1010/1 649/1011/1 599/1012/1
f 546/1013/1 650/1014/1 651/1015/1 492/1016/1 495/1017/1 652/1018/1 653/1019/1 547/1020/1
f 614/1021/10 595/1022/10 654/1023/10 516/1024/10
f 343/919/10 568/918/10 567/1025/10 344/1026/10
f 655/1027/1 656/1028/1 553/1029/1 556/1030/1 657/1031/1 658/1032/1 608/1033/1 609/1034/1
f 659/1035/1 590/908/1 595/915/1 614/947/1 613/946/1 660/1036/1
f 661/1037/2 557/863/2 562/868/2 499/780/2 498/779/2 662/1038/2
f 390/1039/1 389/1040/1 663/1041/1 486/763/1 485/762/1
f 538/1042/2 664/1043/2 665/1044/2 654/1045/2 666/1046/2 667/1047/2 668/1048/2 539/1049/2
f 319/1050/2 318/1051/2 394/871/2 564/870/2 669/1052/2
f 620/1053/6 632/1054/6 631/1055/6 621/1056/6
f 551/1057/2 670/1058/2 671/1059/2 484/1060/2 672/1061/2 673/1062/2 674/1063/2 552/1064/2
f 594/1065/10 666/1066/10 654/1023/10 595/1022/10
f 675/1067/6 500/1068/6 499/1069/6 676/1070/6
f 328/1071/7 319/1072/7 669/1073/7 624/1074/7
f 649/1075/6 605/1076/6 600/922/6 599/921/6
f 614/1021/10 516/1024/10 515/1077/10 615/1078/10
f 639/1079/10 525/1080/10 524/1081/10 640/1082/10
f 677/1083/1 678/1084/1 517/1085/1 520/1086/1 679/1087/1 680/1088/1 633/1089/1 596/1090/1
f 280/1091/3 282/1092/3 681/1093/3 682/1094/3
f 683/1095/2 684/1096/2 529/1097/2 530/1098/2 685/1099/2 686/1100/2 626/1101/2 625/1102/2
f 338/1103/6 672/1104/6 484/761/6 339/760/6
f 420/1105/1 419/1106/1 687/1107/1 650/1014/1 546/1013/1
f 598/920/6 440/923/6 439/1108/6 688/1109/6
f 689/1110/1 690/1111/1 549/1112/1 550/1113/14 691/1114/14 692/1115/14 675/1116/14 676/1117/1
f 535/1118/1 693/1119/1 694/1120/1 598/1121/1 688/1122/1 695/1123/1 696/1124/1 536/1125/1
f 292/1126/1 291/1127/1 697/1128/1 426/661/1 425/660/1
f 291/1129/7 272/1130/7 296/1131/7 697/1132/7
f 698/1133/1 689/1110/1 676/1117/1 428/663/1 427/662/1 699/1134/1
f 306/1135/7 305/1136/7 496/852/7 549/851/7
f 305/1137/2 504/1138/2 507/1139/2 497/778/2 496/777/2
f 408/1140/2 407/1141/2 575/977/2 628/976/2 700/1142/2
f 505/1143/1 306/1144/1 549/1112/1 690/1111/1 506/1145/1
f 701/1146/3 702/1147/3 703/1148/3 704/1149/3
f 705/1150/4 706/1151/4 707/1152/4 708/1153/4
f 585/900/2 584/899/2 708/1154/2 707/1155/2 627/975/2 632/982/2
f 407/1156/3 424/1157/3 576/886/3 575/885/3
f 442/1158/7 441/1159/7 554/860/7 553/859/7
f 441/1160/2 701/1161/2 704/1162/2 583/898/2 554/897/2
f 487/764/1 709/1163/1 710/1164/1 332/554/1 339/561/1 45/765/1
f 702/1165/1 442/1166/1 553/1029/1 656/1028/1 703/1167/1
f 711/1168/9 710/1169/9 709/1170/9 712/1171/9
f 484/1060/2 671/1059/2 711/1172/2 712/1173/2 569/877/2 46/884/2
f 343/565/1 342/564/1 713/1174/1 714/1175/1 677/1083/1 596/1090/1
f 371/1176/3 390/1177/3 485/957/3 571/956/3
f 318/1178/3 329/1179/3 340/622/3 394/621/3
f 715/1180/9 714/1181/9 713/1182/9 716/1183/9
f 396/1184/2 717/1185/2 718/1186/2 670/1058/2 551/1057/2
f 597/1187/2 719/1188/2 715/1189/2 716/1190/2 563/869/2 568/876/2
f 397/1191/7 396/1192/7 551/856/7 334/855/7
f 720/1193/1 397/1194/1 334/556/1 333/555/1 721/1195/1
f 625/1102/2 524/818/2 523/817/2 722/1196/2 723/1197/2 683/1095/2
f 717/1198/3 720/1199/3 721/1200/3 718/1201/3
f 724/1202/4 725/1203/4 723/1204/4 722/1205/4
f 285/1206/7 281/1207/7 521/941/7 610/940/7
f 282/1208/1 285/1209/1 610/991/11 636/990/1 681/1210/1
f 300/522/11 299/521/1 725/1211/1 724/1212/1 635/989/1 640/996/11
f 278/1213/3 287/1214/3 297/824/3 529/823/3
f 287/1215/1 286/1216/1 393/1217/1 298/520/1 297/519/11
f 651/1015/1 726/1218/1 727/1219/1 641/997/1 602/1004/1 492/1016/1
f 279/1220/8 278/1221/8 529/1097/2 684/1096/2 392/1222/2
f 727/1223/15 726/1224/15 728/1225/15 729/1226/15
f 412/1227/3 420/1228/3 546/848/3 545/847/3
f 479/754/2 478/753/2 729/1229/2 728/1230/2 579/889/2 493/896/2
f 413/1231/2 412/1232/2 545/891/2 580/890/2 730/1233/2
f 416/1234/1 418/1235/1 543/999/1 642/998/1 731/1236/1
f 418/1237/7 415/1238/7 476/844/7 543/843/7
f 414/1239/3 416/1240/3 731/1241/3 732/1242/3
f 377/1243/2 376/1244/2 511/792/2 510/791/2 733/1245/2
f 600/931/2 604/930/2 734/1246/2 735/1247/2 433/668/2 440/675/2
f 376/1248/3 385/1249/3 541/840/3 511/839/3
f 659/1250/4 660/1251/4 736/1252/4 737/1253/4
f 665/1044/2 737/1254/2 736/1255/2 509/790/2 516/797/2 654/1045/2
f 379/1256/2 378/1257/2 738/1258/2 664/1043/2 538/1042/2
f 424/1259/1 423/1260/1 739/1261/1 618/961/1 576/960/1
f 423/1262/7 408/1263/7 700/1264/7 739/1265/7
f 609/939/6 585/938/6 632/1054/6 620/1053/6
f 314/1266/3 324/1267/3 535/832/3 435/831/3
f 740/1268/4 741/1269/4 735/1270/4 734/1271/4
f 740/1272/1 645/1005/1 599/1012/1 598/1121/1 694/1120/1 741/1273/1
f 331/1274/2 447/1275/2 742/1276/2 603/929/2 532/928/2
f 705/1277/1 655/1027/1 609/1034/1 620/963/1 619/962/1 706/1278/1
f 372/1279/2 371/1280/2 571/879/2 570/878/2 743/1281/2
f 389/1282/7 372/1283/7 743/1284/7 663/1285/7
f 324/1286/11 323/1287/11 744/1288/1 693/1119/1 535/1118/1
f 380/1289/1 383/1290/1 537/910/1 591/909/1 745/1291/1
f 383/1292/7 379/1293/7 538/836/7 537/835/7
f 378/1294/3 380/1295/3 745/1296/3 738/1297/3
f 310/1298/7 331/1299/7 532/828/7 531/827/7
f 323/1300/7 315/1301/7 589/1302/7 744/1303/7
f 384/1304/7 377/1305/7 733/1306/7 746/1307/7
f 385/1308/1 384/1309/1 746/1310/1 612/945/1 541/944/1
f 415/1311/2 414/1312/2 732/1313/2 477/752/2 476/751/2
f 747/1314/3 748/1315/3 749/1316/3 750/1317/3
f 307/1318/11 310/1319/11 531/1007/1 646/1006/1 751/1320/1
f 447/1321/3 307/1322/3 751/1323/3 742/1324/3
f 348/1325/2 747/1326/2 750/1327/2 752/1328/2 518/1329/2
f 419/1330/7 413/1331/7 730/1332/7 687/1333/7
f 281/1334/8 280/1335/8 682/1336/2 522/816/2 521/815/2
f 300/971/10 640/1082/10 524/1081/10 625/972/10
f 676/1070/6 499/1069/6 562/984/6 428/983/6
f 349/1337/7 348/1338/7 518/812/7 517/811/7
f 748/1339/1 349/1340/1 517/1085/1 678/1084/1 749/1341/1
f 662/1342/9 698/1343/9 699/1344/9 661/1345/9
f 271/1346/3 292/1347/3 425/953/3 294/952/3
f 661/1037/2 753/1348/2 754/1349/2 296/518/2 295/517/2 557/863/2
f 697/1128/1 755/1350/1 756/1351/1 699/1134/1 427/662/1 426/661/1
f 698/1133/1 757/1352/1 758/1353/1 506/1145/1 690/1111/1 689/1110/1
f 507/1139/2 759/1354/2 760/1355/2 662/1038/2 498/779/2 497/778/2
f 707/1155/2 761/1356/2 762/1357/2 700/1142/2 628/976/2 627/975/2
f 739/1261/1 763/1358/1 764/1359/1 706/1278/1 619/962/1 618/961/1
f 705/1277/1 765/1360/1 766/1361/1 703/1167/1 656/1028/1 655/1027/1
f 704/1162/2 767/1362/2 768/1363/2 708/1154/2 584/899/2 583/898/2
f 663/1041/1 769/1364/1 770/1365/1 709/1163/1 487/764/1 486/763/1
f 712/1173/2 771/1366/2 772/1367/2 743/1281/2 570/878/2 569/877/2
f 624/970/1 773/1368/1 774/1369/1 713/1174/1 342/564/1 341/563/1
f 716/1190/2 775/1370/2 776/1371/2 669/1052/2 564/870/2 563/869/2
f 718/1186/2 777/1372/2 778/1373/2 711/1172/2 671/1059/2 670/1058/2
f 710/1164/1 779/1374/1 780/1375/1 721/1195/1 333/555/1 332/554/1
f 682/1336/2 781/1376/2 782/1377/2 722/1196/2 523/817/2 522/816/2
f 724/1212/1 783/1378/1 784/1379/1 681/1210/1 636/990/1 635/989/1
f 723/1197/2 785/1380/2 786/1381/2 392/1222/2 684/1096/2 683/1095/2
f 393/1217/1 787/1382/1 788/1383/1 725/1211/1 299/521/1 298/520/1
f 687/1107/1 789/1384/1 790/1385/1 726/1218/1 651/1015/1 650/1014/1
f 728/1230/2 791/1386/2 792/1387/2 730/1233/2 580/890/2 579/889/2
f 732/1313/2 793/1388/2 794/1389/2 729/1229/2 478/753/2 477/752/2
f 727/1219/1 795/1390/1 796/1391/1 731/1236/1 642/998/1 641/997/1
f 736/1255/2 797/1392/2 798/1393/2 733/1245/2 510/791/2 509/790/2
f 746/1310/1 799/1394/1 800/1395/1 660/1036/1 613/946/1 612/945/1
f 735/1247/2 801/1396/2 802/1397/2 589/907/2 434/669/2 433/668/2
f 744/1288/1 803/1398/1 804/1399/1 741/1273/1 694/1120/1 693/1119/1
f 738/1258/2 805/1400/2 806/1401/2 737/1254/2 665/1044/2 664/1043/2
f 659/1035/1 807/1402/1 808/1403/1 745/1291/1 591/909/1 590/908/1
f 742/1276/2 809/1404/2 810/1405/2 734/1246/2 604/930/2 603/929/2
f 740/1272/1 811/1406/1 812/1407/1 751/1320/1 646/1006/1 645/1005/1
f 714/1175/1 813/1408/1 814/1409/1 749/1341/1 678/1084/1 677/1083/1
f 750/1327/2 815/1410/2 816/1411/2 715/1189/2 719/1188/2 752/1328/2
f 558/955/16 432/954/16 431/1412/16 559/1413/16
f 559/1413/17 431/1412/17 430/1414/17 560/1415/17
f 560/1416/18 430/1417/18 429/986/18 561/985/18
f 395/624/19 347/623/19 346/1418/19 565/1419/19
f 565/1419/20 346/1418/20 345/1420/20 566/1421/20
f 566/1422/21 345/1423/21 344/1026/21 567/1025/21
f 572/959/16 490/958/16 489/1424/16 573/1425/16
f 573/1425/17 489/1424/17 488/1426/17 574/1427/17
f 574/1428/18 488/1429/18 48/56/18 47/55/18
f 578/888/22 577/887/22 623/1430/22 629/1431/22
f 629/1431/17 623/1430/17 622/1432/17 630/1433/17
f 630/1434/21 622/1435/21 621/1056/21 631/1055/21
f 525/1080/23 639/1079/23 638/1436/23 526/1437/23
f 526/1438/24 638/1439/24 637/1440/24 527/1441/24
f 527/1441/25 637/1440/25 611/943/25 528/942/25
f 605/1076/26 649/1075/26 648/1442/26 606/1443/26
f 606/1444/24 648/1445/24 647/1446/24 607/1447/24
f 607/1447/27 647/1446/27 534/830/27 533/829/27
f 666/1066/23 594/1065/23 593/1448/23 667/1449/23
f 667/1450/24 593/1451/24 592/1452/24 668/1453/24
f 668/1453/25 592/1452/25 540/838/25 539/837/25
f 480/925/26 601/924/26 644/1454/26 481/1455/26
f 481/1456/28 644/1457/28 643/1458/28 482/1459/28
f 482/1459/27 643/1458/27 544/846/27 483/845/27
f 530/826/16 304/825/16 303/1460/16 685/1461/16
f 685/1461/20 303/1460/20 302/1462/20 686/1463/20
f 686/1464/21 302/1465/21 301/974/21 626/973/21
f 500/1068/26 675/1067/26 692/1466/26 501/1467/26
f 501/1467/28 692/1466/28 691/1468/28 502/1469/28
f 502/1470/27 691/1471/27 550/854/27 503/853/27
f 436/834/22 536/833/22 696/1472/22 437/1473/22
f 437/1473/20 696/1472/20 695/1474/20 438/1475/20
f 438/1476/18 695/1477/18 688/1109/18 439/1108/18
f 634/988/23 633/987/23 680/1478/23 817/1479/23
f 817/1479/24 680/1478/24 679/1480/24 818/1481/24
f 818/1482/25 679/1483/25 520/814/25 519/813/25
f 512/842/22 542/841/22 617/1484/22 513/1485/22
f 513/1485/29 617/1484/29 616/1486/29 514/1487/29
f 514/1488/21 616/1489/21 615/1078/21 515/1077/21
f 672/1104/26 338/1103/26 337/1490/26 673/1491/26
f 673/1491/28 337/1490/28 336/1492/28 674/1493/28
f 674/1494/25 336/1495/25 335/858/25 552/857/25
f 548/850/22 547/849/22 653/1496/22 581/1497/22
f 581/1497/17 653/1496/17 652/1498/17 582/1499/17
f 582/1500/18 652/1501/18 495/776/18 494/775/18
f 586/937/23 608/936/23 658/1502/23 587/1503/23
f 587/1503/28 658/1502/28 657/1504/28 588/1505/28
f 588/1506/27 657/1507/27 556/862/27 555/861/27
f 661/1345/30 699/1344/30 756/1508/30 753/1509/30
f 753/1510/31 756/1511/31 755/1512/31 754/1513/31
f 754/1513/32 755/1512/32 697/1132/32 296/1131/32
f 698/1343/33 662/1342/33 760/1514/33 757/1515/33
f 757/1515/34 760/1514/34 759/1516/34 758/1517/34
f 758/1518/35 759/1519/35 507/788/35 506/787/35
f 707/1152/36 706/1151/36 764/1520/36 761/1521/36
f 761/1522/31 764/1523/31 763/1524/31 762/1525/31
f 762/1525/32 763/1524/32 739/1265/32 700/1264/32
f 705/1150/33 708/1153/33 768/1526/33 765/1527/33
f 765/1527/34 768/1526/34 767/1528/34 766/1529/34
f 766/1530/35 767/1531/35 704/1149/35 703/1148/35
f 712/1171/30 709/1170/30 770/1532/30 771/1533/30
f 771/1534/31 770/1535/31 769/1536/31 772/1537/31
f 772/1537/32 769/1536/32 663/1285/32 743/1284/32
f 716/1183/36 713/1182/36 774/1538/36 775/1539/36
f 775/1540/37 774/1541/37 773/1542/37 776/1543/37
f 776/1543/32 773/1542/32 624/1074/32 669/1073/32
f 710/1169/33 711/1168/33 778/1544/33 779/1545/33
f 779/1545/34 778/1544/34 777/1546/34 780/1547/34
f 780/1548/35 777/1549/35 718/1201/35 721/1200/35
f 724/1202/33 722/1205/33 782/1550/33 783/1551/33
f 783/1552/38 782/1553/38 781/1554/38 784/1555/38
f 784/1556/39 781/1557/39 682/1094/39 681/1093/39
f 723/1558/30 725/1559/30 788/1560/30 785/1561/30
f 785/1562/37 788/1563/37 787/1564/37 786/1565/37
f 786/1566/40 787/1567/40 393/1568/40 392/1569/40
f 728/1225/41 726/1224/41 790/1570/41 791/1571/41
f 791/1572/42 790/1573/42 789/1574/42 792/1575/42
f 792/1576/43 789/1577/43 687/1333/43 730/1332/43
f 727/1223/44 729/1226/44 794/1578/44 795/1579/44
f 795/1579/45 794/1578/45 793/1580/45 796/1581/45
f 796/1582/46 793/1583/46 732/1242/46 731/1241/46
f 736/1252/36 660/1251/36 800/1584/36 797/1585/36
f 797/1586/37 800/1587/37 799/1588/37 798/1589/37
f 798/1590/40 799/1591/40 746/1307/40 733/1306/40
f 735/1270/30 741/1269/30 804/1592/30 801/1593/30
f 801/1594/37 804/1595/37 803/1596/37 802/1597/37
f 802/1598/32 803/1599/32 744/1303/32 589/1302/32
f 659/1250/33 737/1253/33 806/1600/33 807/1601/33
f 807/1602/38 806/1603/38 805/1604/38 808/1605/38
f 808/1606/39 805/1607/39 738/1297/39 745/1296/39
f 740/1268/47 734/1271/47 810/1608/47 811/1609/47
f 811/1610/48 810/1611/48 809/1612/48 812/1613/48
f 812/1614/35 809/1615/35 742/1324/35 751/1323/35
f 714/1181/47 715/1180/47 816/1616/47 813/1617/47
f 813/1617/38 816/1616/38 815/1618/38 814/1619/38
f 814/1620/35 815/1621/35 750/1317/35 749/1316/35
f 518/1329/2 752/1328/2 719/1188/2 597/1187/2 634/1622/2 817/1623/2 818/1624/2 519/1625/2
f 701/1626/6 409/639/6 422/656/6 702/1627/6
f 717/1628/6 373/596/6 388/613/6 720/1629/6
f 747/1630/6 320/542/6 327/549/6 748/1631/6
f 504/1632/6 273/493/6 290/510/6 505/1633/6
f 50/114/2 444/680/2 352/683/8 69/115/8
f 416/648/6 414/646/6 410/640/6 417/649/6
f 380/605/6 378/603/6 374/597/6 381/606/6
f 307/529/6 447/685/6 316/538/6 308/530/6
f 282/502/6 280/500/6 274/494/6 283/503/6
f 474/808/4 475/803/4 462/802/4 464/805/4
f 452/800/1 451/798/1 322/544/1 508/789/1
f 508/789/1 322/544/1 321/543/1 467/722/1
f 468/723/1 465/720/1 453/759/1 454/770/1
f 444/749/2 475/748/2 474/746/2 445/745/2
f 470/740/2 317/739/2 312/738/2 471/737/2
f 458/727/2 470/726/2 471/731/2 459/730/2
f 467/722/1 321/543/1 465/720/1 468/723/1
f 462/712/2 461/711/2 460/716/2 464/715/2
f 459/705/6 456/700/6 457/703/6 460/706/6
f 289/696/6 293/698/6 455/699/6 454/697/6
f 452/691/1 450/688/1 446/689/5 448/692/1
f 268/488/4 269/489/4 449/687/4 448/686/4
f 445/681/2 443/678/2 350/679/8 353/682/8
f 702/1627/6 422/656/6 270/659/6 276/655/6 421/654/6 442/677/6
f 420/653/6 412/644/6 411/643/6 421/654/6
f 387/642/6 391/636/6 409/639/6 701/1626/6 441/676/6 411/643/6
f 402/631/4 403/632/4 406/635/4 405/634/4
f 400/629/4 398/627/4 403/632/4 402/631/4
f 369/591/4 370/592/4 398/627/4 400/629/4
f 720/1629/6 388/613/6 391/616/6 387/612/6 386/611/6 397/626/6
f 385/610/6 376/601/6 375/600/6 386/611/6
f 326/599/6 330/593/6 373/596/6 717/1628/6 396/625/6 375/600/6
f 366/588/4 367/589/4 370/592/4 369/591/4
f 363/585/4 364/586/4 367/589/4 366/588/4
f 360/582/4 361/583/4 364/586/4 363/585/4
f 357/579/4 358/580/4 361/583/4 360/582/4
f 354/576/4 351/573/4 358/580/4 357/579/4
f 353/575/4 350/572/4 351/573/4 354/576/4
f 748/1631/6 327/549/6 330/552/6 326/548/6 325/547/6 349/571/6
f 324/546/6 314/536/6 313/535/6 325/547/6
f 312/534/6 317/539/6 320/542/6 747/1630/6 348/570/6 313/535/6
f 505/1633/6 290/510/6 293/513/6 289/509/6 288/508/6 306/528/6
f 287/507/6 278/498/6 277/497/6 288/508/6
f 276/496/6 270/490/6 273/493/6 504/1632/6 305/527/6 277/497/6
f 264/484/4 265/485/4 269/489/4 268/488/4
f 263/483/4 266/486/4 265/485/4 264/484/4
f 405/634/4 406/635/4 266/486/4 263/483/4
